<svg xmlns="http://www.w3.org/2000/svg" viewBox="5329 389.359 90.426 29.761">
  <defs>
    <style>
      .cls-1 {
        fill: #c6c7c9;
      }
    </style>
  </defs>
  <g id="Group_11" data-name="Group 11" transform="translate(5329.019 389.334)">
    <path id="Path_80" data-name="Path 80" class="cls-1" d="M87.543,6.373A13.54,13.54,0,0,0,76.1.112C55.544-.015,34.959.017,14.374.08A13.406,13.406,0,0,0,4.1,4.823,5.528,5.528,0,0,0,2.39,6.847C-1.942,13.361-.234,22.783,5.932,26.673a13.759,13.759,0,0,0,9.2,3.1q30.023.047,60.046,0a8.452,8.452,0,0,0,1.265-.032c2.814-.379,5.6-.917,7.684-3.1a8.957,8.957,0,0,0,4.111-4.711.62.62,0,0,0,.6-.379C91.369,17.218,90.768,10.294,87.543,6.373Zm-12.174,20.9c-6.545.095-13.059.032-19.6.032-13.344,0-26.656.032-40,0a12.426,12.426,0,0,1-12.427-9.9A12.458,12.458,0,0,1,15.291,2.23C25.315,2.136,35.307,2.2,45.33,2.2c9.739,0,19.51-.032,29.248,0a12.434,12.434,0,0,1,12.711,13A12.457,12.457,0,0,1,75.369,27.273Z" transform="translate(0 0)"/>
    <path id="Path_81" data-name="Path 81" class="cls-1" d="M83.382,10.155c-9.739-.032-19.509,0-29.248,0h0c-10.024,0-20.015-.063-30.039.032a11.5,11.5,0,1,0,.569,22.988c12.743.032,25.517,0,38.26,0,7.051,0,14.134.063,21.185-.032a11.5,11.5,0,0,0-.727-22.988Zm-5.723,4.427a1.33,1.33,0,0,1,1.36,1.486,1.918,1.918,0,0,1-1.771,2.055A1.325,1.325,0,0,1,75.7,16.732,2.184,2.184,0,0,1,77.658,14.582ZM22.007,29.918c-.6-.569.474-1.423.854-2.087a83.119,83.119,0,0,0,5.786-10.688c.348-.822,1.075-1.834.158-2.593s-2.024-.285-2.941.253-1.771,1.17-2.719,1.8c-.285-.822.285-1.107.632-1.423a9.826,9.826,0,0,1,7.114-2.466c1.739.063,2.4.98,1.771,2.624-.7,1.866-1.581,3.636-2.4,5.533a4.25,4.25,0,0,0,4.205-1.707c1.265-1.423,2.34-2.972,3.6-4.364a4.075,4.075,0,0,1,5.217-1.043c-2.182.854-3.383,2.719-4.743,4.332-1.613,1.834-3.415,3.383-5.976,3.794-.727.126-.822.348-.474,1.012.7,1.3,1.233,2.688,1.866,3.984,1.138,2.245,2.245,2.656,4.617,1.739a1.325,1.325,0,0,1,1.3-.126,7.681,7.681,0,0,1-5.407,2.182,3.728,3.728,0,0,1-3.415-2.593c-.506-1.138-1.075-2.277-1.676-3.383-.443-.822-.885-.727-1.328.063-.6,1.107-1.233,2.182-1.9,3.288a3.5,3.5,0,0,1-1.391,1.486C23.9,29.949,22.735,30.582,22.007,29.918Zm63.43-10.656c-1.834-.095-1.992,1.391-2.5,2.561-.411.98-.79,1.96-1.17,2.941-.126.379-.285.885.158,1.17a1.063,1.063,0,0,0,1.2-.158c.569-.443,1.107-.917,1.676-1.391a3.814,3.814,0,0,1-5.533,2.624,1.71,1.71,0,0,0-1.613.032,4.607,4.607,0,0,1-4.522-.126,1.287,1.287,0,0,0-1.455-.032,4.081,4.081,0,0,1-4.869-.221c-.7-.538-1.2-.285-1.834.126-1.3.854-2.656,1.328-4.079.253h0c-.632-.474-1.233-.79-1.96-.126a1.915,1.915,0,0,1-.854.379c-1.233.316-2.561.759-3.573-.253-.949-.949-.158-2.087.158-3.1.285-.885.7-1.771.98-2.656.316-1.012-.285-1.265-1.107-1.043a2.863,2.863,0,0,0-1.9,1.771c-.569,1.3-1.075,2.624-1.676,3.921a2.249,2.249,0,0,1-3.636,1.043c-.411-.285-.538-.095-.759.063a2.707,2.707,0,0,1-3.6-.253,1.491,1.491,0,0,0-2.087-.095c-1.2.79-2.53,1.455-3.952.443-.98-.7-.98-2.561-.285-4.269,1.075-2.751,3.383-3.541,5.976-3.952h0c.095,0,.221-.032.316-.032,1.17,0,2.308.032,3.478,0,1.265,0,1.613.6,1.107,1.707-.538,1.265-1.138,2.5-1.676,3.731-.221.506-.6,1.138.095,1.518a1.388,1.388,0,0,0,1.707-.443,6.832,6.832,0,0,0,.822-1.486c.6-1.3,1.138-2.593,1.771-3.858a2.015,2.015,0,0,1,3.13-.885,1.52,1.52,0,0,0,1.455.158,4.36,4.36,0,0,1,.917-.253c.98-.126,2.055-.506,2.814.411.791.917.19,1.9-.158,2.814-.221.632-.569,1.233-.791,1.9-.221.6-.822,1.265-.063,1.834.759.6,1.486.285,2.119-.316.854-4.9,2.814-6.64,7.747-6.672,1.3,0,2.087-.348,2.466-1.644A20.821,20.821,0,0,1,71.018,14.8a2,2,0,0,1,1.2-1.17,1.38,1.38,0,0,1,1.613.126c.506.474.221.98.032,1.455-1.138,2.624-2.245,5.217-3.383,7.842-.19.443-.379.854-.569,1.3-.285.727-.474,1.518.379,1.929a1.514,1.514,0,0,0,2.024-.759,13.06,13.06,0,0,0,.949-2.15c.474-1.107.885-2.277,1.423-3.352a1.7,1.7,0,0,1,2.277-.917c1.107.443.506,1.3.221,2.024-.411,1.138-.885,2.245-1.328,3.383-.253.632-.538,1.36.316,1.8a1.468,1.468,0,0,0,2.087-.474c.885-1.834,1.581-3.794,2.34-5.692.158-.379-.095-.6-.474-.632-.348-.032-.664-.158-.538-.569a.575.575,0,0,1,.569-.474c1.3.19,1.549-.79,1.929-1.676.221-.538.443-1.107,1.043-1.328s1.233-.443,1.771.032.095.98-.032,1.455c-.19.632-.885,1.455.538,1.486.221,0,.411.126.379.379A.334.334,0,0,1,85.437,19.262Z" transform="translate(-8.803 -6.913)"/>
    <path id="Path_82" data-name="Path 82" class="cls-1" d="M175.3,40.829a5.484,5.484,0,0,0-3.7,4.648c-.032,1.3.538,1.707,1.771,1.328a2.157,2.157,0,0,0,1.423-1.138c.538-1.2,1.107-2.372,1.644-3.573.158-.348.474-.79.063-1.138C176.182,40.639,175.708,40.766,175.3,40.829Z" transform="translate(-117.35 -27.848)"/>
    <path id="Path_83" data-name="Path 83" class="cls-1" d="M100.563,40.874A5.361,5.361,0,0,0,96.8,45.491c.032.569-.126,1.328.759,1.455A2.124,2.124,0,0,0,99.867,45.9c.664-1.233,1.2-2.561,1.8-3.858C102.239,40.811,101.511,40.716,100.563,40.874Z" transform="translate(-66.205 -27.893)"/>
  </g>
</svg>
