<svg xmlns="http://www.w3.org/2000/svg" viewBox="4905 383.349 123.296 42.244">
  <defs>
    <style>
      .cls-1 {
        fill: #db0b23;
      }
    </style>
  </defs>
  <g id="Group_9" data-name="Group 9" transform="translate(4905 383.815)">
    <path id="Path_68" data-name="Path 68" class="cls-1" d="M0,41.507l.185-.185a12.5,12.5,0,0,1,.677-1.6l2.032-3.7,9.053-16.444c.862-1.54,1.724-3.141,2.587-4.681.308-.616.677-1.232.985-1.848a4.276,4.276,0,0,0,.308-.8c.123-.431,0-.554-.431-.554a3.091,3.091,0,0,0-.739.123c-.739.246-1.416.493-2.156.739-.616.246-1.232.431-1.848.616a4.592,4.592,0,0,1-1.6.246,2.981,2.981,0,0,1-1.478-.185,2.614,2.614,0,0,1-1.848-1.971A3.986,3.986,0,0,1,5.666,9.79a2.592,2.592,0,0,1,.985-1.54,3.961,3.961,0,0,1,1.478-.616,5.41,5.41,0,0,1,1.724-.062,1.188,1.188,0,0,1,.616.185A21.232,21.232,0,0,0,13.3,8.5a12.844,12.844,0,0,0,2.156.246,5.944,5.944,0,0,0,1.047,0c.677-.062,1.416-.123,2.094-.185.554-.062,1.109-.185,1.6-.246h.123a.115.115,0,0,1,0,.185c-1.109,3.2-2.032,6.467-3.079,9.669-.123.37-.246.8-.37,1.17-.062.246-.123.493-.185.677,0,.123-.062.308,0,.431a.265.265,0,0,0,.246.246c.062,0,.062,0,.123-.062a1.288,1.288,0,0,0,.37-.246A22.859,22.859,0,0,1,19.4,18.967c4.065-2.525,8.314-4.988,12.625-7.144C33.873,10.9,35.782,10.1,37.752,9.3c3.264-1.355,6.528-2.587,9.854-3.7,1.355-.431,2.648-.862,4.065-1.232a15.753,15.753,0,0,1,1.663-.308,6.828,6.828,0,0,1,2.956.246,3.767,3.767,0,0,1,.739.308,5.327,5.327,0,0,1,.616.431,1.659,1.659,0,0,1,.493,1.724A2.936,2.936,0,0,1,57.4,8.128a3.669,3.669,0,0,1-1.293.862,8.757,8.757,0,0,1-2.032.677c-1.17.246-2.34.431-3.51.616s-2.4.37-3.634.554l-3.51.554q-2.956.462-5.912,1.109a57.734,57.734,0,0,0-8.376,2.71,10.354,10.354,0,0,0-1.848.924c-.37.246-.739.493-1.047.739a2.312,2.312,0,0,0-.862,1.293,7.92,7.92,0,0,0-.246,1.17,23.673,23.673,0,0,0,0,2.956c.062.8.123,1.663.185,2.463a28.9,28.9,0,0,0,.554,3.942c.062.185.123.37.185.616.062.123.062.246.123.37a.424.424,0,0,0,.493.308c.062,0,.123-.062.185-.062a2.892,2.892,0,0,0,.554-.37,6.674,6.674,0,0,0,1.6-1.848,3.465,3.465,0,0,0,.431-1.109,11.5,11.5,0,0,1,5.235-7.39,4.288,4.288,0,0,1,1.416-.677,2.1,2.1,0,0,1,.616-.062.163.163,0,0,1,.185.185v.062l-.185.37c-.123.246-.308.493-.431.739a9.964,9.964,0,0,0-.616,1.109,12.958,12.958,0,0,0-1.17,3.264,11.334,11.334,0,0,0-.246,2.525,3.487,3.487,0,0,0,.185,1.109,3.767,3.767,0,0,0,.308.739,1.565,1.565,0,0,0,1.416.862,2.444,2.444,0,0,0,2.463-1.416,3.253,3.253,0,0,0,.246-2.156,1.226,1.226,0,0,0-.493-.739.828.828,0,0,1-.37-.431,3.4,3.4,0,0,1-.431-1.54,3.744,3.744,0,0,1,.062-1.17,1.968,1.968,0,0,1,1.724-1.478,1.553,1.553,0,0,1,1.724,1.047,3.216,3.216,0,0,1,.246,1.293v1.17a1.944,1.944,0,0,0,1.909.246c0-.062.062-.185.062-.246a11.271,11.271,0,0,1,2.032-4.865,9.612,9.612,0,0,1,3.7-2.956,8.924,8.924,0,0,1,2.156-.739,5.447,5.447,0,0,1,1.416,0,1.7,1.7,0,0,1,1.293,1.109,2.9,2.9,0,0,1,.246,1.047,5.471,5.471,0,0,1-.862,3.2,8.59,8.59,0,0,1-1.293,1.663,13.875,13.875,0,0,1-3.2,2.463c-.062.062-.123.062-.246.123v.185a4.2,4.2,0,0,0,.677,1.6,1.951,1.951,0,0,0,1.293.8,2.292,2.292,0,0,0,1.109-.123,3.424,3.424,0,0,0,1.047-.554,4.736,4.736,0,0,0,1.109-1.109,13.009,13.009,0,0,0,1.293-1.909,26.34,26.34,0,0,0,1.909-4.249,58.977,58.977,0,0,0,2.156-7.329c0-.062.062-.185.062-.246.062.062.185.062.246.123,1.293.862,2.71,1.663,4.065,2.4.493.308.985.616,1.416.924a4.484,4.484,0,0,1,1.109,1.047,4.9,4.9,0,0,1,1.232,3.018,9.507,9.507,0,0,1-.677,3.942,5.393,5.393,0,0,1-3.942,3.326,10.835,10.835,0,0,1-3.141.246,4.417,4.417,0,0,1-1.54-.431,1.1,1.1,0,0,1-.431-.308l2.217-4.188c.123.062.185.062.308.123a9.276,9.276,0,0,0,2.525.8,4.673,4.673,0,0,0,1.848.062,1.845,1.845,0,0,0,1.293-.924,1,1,0,0,0,.123-.924,3.318,3.318,0,0,0-.431-.8,4.9,4.9,0,0,0-2.463-1.663c-.985-.308-2.032-.616-3.018-.862a.226.226,0,0,1-.185-.062,1.288,1.288,0,0,0-.246.37l-2.217,4.434a18.888,18.888,0,0,1-2.833,4.126,14,14,0,0,1-1.971,1.848,6.825,6.825,0,0,1-2.587,1.293,5.882,5.882,0,0,1-3.264,0A4.752,4.752,0,0,1,44.527,28.7a6.569,6.569,0,0,1-1.232-2.34c-.062-.123-.062-.246-.123-.308v-.062a8.254,8.254,0,0,1-1.232.062c-.431-.062-.8-.123-1.232-.185-.062.062-.062.185-.123.246a18.329,18.329,0,0,1-1.478,3.141,12.59,12.59,0,0,1-1.54,2.032,5.849,5.849,0,0,1-2.217,1.478A3.511,3.511,0,0,1,34,33.009a3.452,3.452,0,0,1-2.156-.677,4.977,4.977,0,0,1-.985-.985,8.793,8.793,0,0,1-.924-1.663.875.875,0,0,1-.123-.37c-.123.062-.246.123-.246.246-.616.8-1.232,1.6-1.848,2.34a15.371,15.371,0,0,1-2.032,1.971,11.135,11.135,0,0,1-1.786,1.17,5.42,5.42,0,0,1-.924.308,1.6,1.6,0,0,1-1.478-.431,3.588,3.588,0,0,1-.677-.924,14.14,14.14,0,0,1-1.047-2.4,34.137,34.137,0,0,1-.862-3.387c-.308-1.54-.554-3.018-.862-4.557A6.443,6.443,0,0,0,17.8,22.6l-.185-.554a.616.616,0,0,0-.8-.37.555.555,0,0,0-.37.37c-.123.185-.185.431-.308.616-.431,1.478-.924,2.895-1.355,4.373-.985,3.141-2.032,6.22-3.018,9.361-.123.308-.185.554-.308.862a2.175,2.175,0,0,1-1.416,1.232.215.215,0,0,0-.123.062c-1.416.431-2.771.924-4.188,1.355s-2.895.924-4.311,1.355c-.185.062-.37.062-.493.123a2.035,2.035,0,0,1-.862,0L0,41.507ZM48.222,23.339c.062,0,.123-.062.246-.123a8.081,8.081,0,0,0,2.156-1.663,7.394,7.394,0,0,0,1.786-2.895c.062-.246.123-.554.185-.8A.666.666,0,0,0,52.164,17a.482.482,0,0,0-.493.062,2.159,2.159,0,0,0-.862.37,4.9,4.9,0,0,0-1.293,1.232,15.578,15.578,0,0,0-.8,1.355,5.572,5.572,0,0,0-.554,2.833A1.356,1.356,0,0,0,48.222,23.339Z" transform="translate(0 -1.717)"/>
    <path id="Path_69" data-name="Path 69" class="cls-1" d="M148.767,45.995a.226.226,0,0,0-.062.185c-.123.431-.308.862-.431,1.232h-.246c-1.17-.185-2.279-.37-3.449-.493l-2.771-.37c-.862-.123-1.663-.185-2.525-.246-.677-.062-1.416-.123-2.094-.185-.862-.062-1.663-.123-2.525-.185-.616-.062-1.293-.062-1.909-.123a16.137,16.137,0,0,0-1.724-.062c-1.109-.062-2.156-.062-3.264-.123-1.478,0-2.895-.062-4.373-.062-1.663,0-3.326.062-4.927.123-.862,0-1.724.062-2.587.123-.924.062-1.786.123-2.71.185-.8.062-1.54.185-2.34.246l-2.587.37c-1.232.246-2.525.493-3.757.739-2.094.431-4.188.924-6.22,1.478-4.311,1.17-8.5,2.463-12.687,3.942-2.032.739-4.065,1.54-6.035,2.4-1.786.739-3.572,1.478-5.358,2.156a22.077,22.077,0,0,1-3.449.985,8.038,8.038,0,0,1-2.094.185,3.121,3.121,0,0,1-.8-.123,1.633,1.633,0,0,1-1.109-1.17,2.933,2.933,0,0,1,.554-2.648,4.377,4.377,0,0,1,.924-.924,6.829,6.829,0,0,1,1.848-1.047c.985-.431,1.971-.8,3.018-1.17,4.188-1.416,8.376-2.648,12.687-3.7,2.34-.554,4.681-1.109,7.021-1.54,1.724-.308,3.51-.677,5.235-.985,1.232-.185,2.525-.37,3.757-.554,1.047-.123,2.156-.308,3.2-.431.8-.123,1.54-.185,2.34-.246.924-.123,1.848-.185,2.71-.246.739-.062,1.54-.123,2.279-.185.924-.062,1.848-.123,2.71-.185a12.369,12.369,0,0,1,1.54-.062c.862-.062,1.786-.062,2.648-.123,1.478,0,2.956-.062,4.434-.062,1.54,0,3.018.062,4.557.123.8,0,1.6.062,2.4.123a16.229,16.229,0,0,1,1.724.123c.431.062.924.062,1.355.123l2.217.185c.554.062,1.109.123,1.724.185.739.062,1.478.185,2.217.246.616.062,1.232.185,1.848.246.862.123,1.724.246,2.587.431,1.109.185,2.279.431,3.387.677a7.2,7.2,0,0,1,1.232.308l-.123.123Z" transform="translate(-25.594 -16.735)"/>
    <path id="Path_70" data-name="Path 70" class="cls-1" d="M134.53,9.921c1.54.062,3.079.062,4.557.123.062,0,.062,0,.123.062a.875.875,0,0,1-.123.37c-.431,1.355-.924,2.71-1.293,4.126-.308.985-.554,1.971-.862,3.018a9.562,9.562,0,0,0-.246,1.293,3.481,3.481,0,0,0,0,.8,1.207,1.207,0,0,0,1.232,1.047,4.212,4.212,0,0,0,2.71-.739,3.92,3.92,0,0,0,1.232-1.232,7.678,7.678,0,0,0,.924-1.724c.554-1.663,1.232-3.326,1.909-4.988a9.473,9.473,0,0,1,.493-1.17c.431-.062,4.8-.123,5.235-.123v1.355c.123,0,.246,0,.308-.123a17.4,17.4,0,0,1,2.463-1.047,6.981,6.981,0,0,1,1.971-.37,3.79,3.79,0,0,1,1.17.123,1.815,1.815,0,0,1,1.232.985,3.915,3.915,0,0,1,.37,1.109,7.487,7.487,0,0,1,0,2.032,9.945,9.945,0,0,1-.616,2.217,15.927,15.927,0,0,0-.862,2.587,5.424,5.424,0,0,0-.123,1.047c0,.123.062.308.062.431a.722.722,0,0,0,.677.554,2.881,2.881,0,0,0,1.047-.123c.554-.185,1.109-.37,1.663-.616l1.478-.739c.062-.062.123-.062.246-.123l.431.677c0,.062-.062.062-.123.123a18.051,18.051,0,0,1-4.188,2.525,7.2,7.2,0,0,1-1.54.431,4.343,4.343,0,0,1-3.141-.677,2.887,2.887,0,0,1-1.293-2.217,7.986,7.986,0,0,1,.123-2.094c.185-.8.37-1.6.616-2.463a8.4,8.4,0,0,0,.246-1.047,1.265,1.265,0,0,0,0-.677.83.83,0,0,0-.862-.8,2.326,2.326,0,0,0-1.293.246,3.4,3.4,0,0,0-1.047.862,4.651,4.651,0,0,0-.8,1.416l-2.217,5.728c-.123.37-.308.739-.431,1.109a9.1,9.1,0,0,1-1.293-.062H143.4c-.431,0-.862-.062-1.232-.062a9.1,9.1,0,0,1-1.293-.062c.123-.677.37-1.293.493-1.971a.555.555,0,0,0-.308.062,30.771,30.771,0,0,1-2.956,1.293,10.08,10.08,0,0,1-2.34.616,4.986,4.986,0,0,1-1.909-.062A3.107,3.107,0,0,1,131.7,21.13l-.185-.37a1.344,1.344,0,0,0-.308.246,24.882,24.882,0,0,1-3.449,2.156,10.6,10.6,0,0,1-2.771.985,5.7,5.7,0,0,1-2.032.185,2.175,2.175,0,0,1-1.909-1.109,3.137,3.137,0,0,1-.431-1.047c0-.062-.062-.185-.062-.246a.339.339,0,0,0-.308.123q-1.57.924-3.141,1.663a13.71,13.71,0,0,1-2.648.985,3.487,3.487,0,0,1-1.109.185,6.074,6.074,0,0,1-1.478-.185,1.926,1.926,0,0,1-1.478-1.909,9.4,9.4,0,0,1,.185-1.848c.246-1.047.616-2.032.924-3.018.246-.8.493-1.6.739-2.463a4.159,4.159,0,0,0,.123-.862v-.431a.647.647,0,0,0-.308-.554c-.185-.123-.308-.246-.493-.37-.431-.246-.8-.493-1.232-.739a11.774,11.774,0,0,1-2.587-2.032,7.652,7.652,0,0,1-2.279-6.467l.37-.185a16.007,16.007,0,0,1,2.217-.8l2.4-.554h.123v.185c0,.739,0,1.478.062,2.217a12.926,12.926,0,0,0,.554,3.079,5.809,5.809,0,0,0,.616,1.416,3.09,3.09,0,0,0,.862.924,1.367,1.367,0,0,0,.677.308h.062a.06.06,0,0,1,.062-.062c0-.062,0-.062.062-.123,1.232-3.2,2.463-6.4,3.634-9.669V.683a.226.226,0,0,0,.185-.062h4.311a.781.781,0,0,1-.062.37c-.493,1.416-.924,2.833-1.416,4.249-.677,1.971-1.355,4-1.971,5.974-.062.246-.123.493-.185.8,0,.123-.062.246,0,.37a.757.757,0,0,0,.431.677c.123.062.246.062.37.123a4.661,4.661,0,0,0,.924.062,7.5,7.5,0,0,0,2.34-.431c.308,0,.493-.246.554-.554A40.268,40.268,0,0,1,124.738,6.9a30.271,30.271,0,0,1,1.478-2.771A10.574,10.574,0,0,1,130.466.314,8.757,8.757,0,0,1,132.5-.364a3.713,3.713,0,0,1,1.417-.062,1.375,1.375,0,0,1,1.232,1.17,4.671,4.671,0,0,1-.062,1.6,10.982,10.982,0,0,1-1.293,3.326,9.146,9.146,0,0,1-1.909,2.463,26.1,26.1,0,0,1-3.2,2.648c-.37.246-.739.554-1.109.8a1.1,1.1,0,0,0-.308.431,34.062,34.062,0,0,0-1.54,5.974,9.562,9.562,0,0,0-.185,1.909,3.12,3.12,0,0,0,.123.8.722.722,0,0,0,.677.554,4.688,4.688,0,0,0,1.293-.185,6.371,6.371,0,0,0,1.293-.677,15.411,15.411,0,0,0,2.4-2.094,2.212,2.212,0,0,0,.8-1.478c.554-2.032,1.17-4,1.909-5.974A2.588,2.588,0,0,0,134.53,9.921Zm-17.183,5.173c-.062.123-.062.185-.123.308-.308.985-.677,2.032-.985,3.018-.123.431-.246.924-.37,1.416a2.348,2.348,0,0,0-.062.924.683.683,0,0,0,.8.677h0a1.705,1.705,0,0,0,.554-.062,9.75,9.75,0,0,0,1.909-.554c.308-.123.554-.246.8-.37a2.114,2.114,0,0,0,1.109-1.478c.37-1.355.677-2.71,1.047-4.065v-.185h-.185a21.365,21.365,0,0,1-2.771.37,12.873,12.873,0,0,1-1.54-.062.226.226,0,0,1-.185.062ZM128.8,9.059c.062-.062.185-.123.246-.185.554-.431,1.047-.924,1.54-1.355a10.175,10.175,0,0,0,2.032-2.525c.062-.123.123-.185.185-.308.308-.493.554-.985.8-1.478.123-.308.246-.554.37-.862a1.356,1.356,0,0,0,.062-.493.6.6,0,0,0-.493-.616h-.062a1.471,1.471,0,0,0-.554.123,3.954,3.954,0,0,0-.8.616c-.431.431-.8.862-1.17,1.293a5.962,5.962,0,0,0-1.109,1.909,32.368,32.368,0,0,0-1.109,3.7c0,.062.062.123.062.185Z" transform="translate(-40.488)"/>
    <path id="Path_71" data-name="Path 71" class="cls-1" d="M158.064,10.305a2.792,2.792,0,0,1-1.848-.616,2.618,2.618,0,0,1-.37-3.634,3.715,3.715,0,0,1,.493-.493A2.876,2.876,0,0,1,159.6,5.5a2.719,2.719,0,0,1,.616,3.7A2.683,2.683,0,0,1,158.064,10.305Z" transform="translate(-59.649 -2.109)"/>
  </g>
</svg>
