<?xml version="1.0" encoding="utf-8"?>
<!-- Generator: Adobe Illustrator 21.1.0, SVG Export Plug-In . SVG Version: 6.00 Build 0)  -->
<svg version="1.1" id="Layer_1" xmlns="http://www.w3.org/2000/svg" xmlns:xlink="http://www.w3.org/1999/xlink" x="0px" y="0px"
	 viewBox="0 0 1920 797" style="enable-background:new 0 0 1920 797;" xml:space="preserve">
<style type="text/css">
	.st0{fill:#EFEFEF;}
	.st1{fill:#C7C8CA;}
	.st2{fill:#ED1C24;}
</style>
<path class="st0" d="M960,0C548.4,0,189.6,81.4,0,202.1V532v62.9V797h960h960V594.9V532V202.1C1730.4,81.4,1371.6,0,960,0z"/>
<g>
	<polygon class="st1" points="847.4,659.2 845.2,659.4 843.6,657.9 840.5,656.2 840.2,655.3 839.7,654.9 838.4,654.8 837.1,655.3 
		837.1,656 838.1,656.7 838.8,657.9 839.6,659 843.7,660.4 842.9,661 842.4,661.7 843.1,662.5 847.4,663.5 847,662.5 847.2,661.4 	
		"/>
	<polygon class="st1" points="832.5,644.2 832,643.1 831.1,642.3 828.6,641.2 828.4,639.6 826.4,638 825.5,638.2 825,638.6 
		824.2,638.5 822.8,637.5 820.6,636.8 819.4,635.2 818.7,633.5 816.6,632.3 816,632.4 816.2,634.1 815.7,634.6 814.8,634.4 
		813.4,633.2 812.6,632.9 812,633.4 812.2,634.4 815.7,638.1 819.7,640.8 821.3,640.4 826.4,644.6 831.7,645 	"/>
	<polygon class="st1" points="871.5,655.1 870.2,653.3 865.7,650.1 865,650.5 864.3,651.6 863.2,652.5 864,654.2 870.1,657.6 
		872.1,659.4 872.9,659.2 872.5,657.4 	"/>
	<polygon class="st1" points="728.4,607 721.1,602.3 720.6,600.9 718.8,599.3 715.5,598 713.5,597.7 713.5,599 714.4,600.3 
		714.8,602.2 716,603.9 733.1,612.9 732.7,611.9 729.4,607.2 	"/>
	<polygon class="st1" points="558.8,531.5 558.2,531.2 556.7,529.8 554.5,529.4 553.2,529.7 555.4,533.4 557.5,535.1 558.4,534.4 
		558.7,532.6 560.4,531.1 559.6,531.1 	"/>
	<polygon class="st1" points="609.5,410.6 608.9,412 609.6,414.6 611.9,416.3 622,419.1 623,418.9 621.4,416.3 620.7,415.2 
		615.9,412.1 610.7,410.4 	"/>
	<polygon class="st1" points="558.1,411.7 559.2,412.9 563.7,414.5 564.6,415.2 568,416 569.5,415.8 569.9,414.3 569.2,412.6 
		564.9,409.2 	"/>
	<polygon class="st1" points="671.7,526.9 673.1,526.5 674.7,528 674.7,526.9 672.8,525.1 671,524.2 658.9,518.1 659,519.2 
		660.6,521.2 669.3,526.7 	"/>
	<polygon class="st1" points="443,459.9 440.7,459.1 440.1,459.4 438,458.7 436.9,458.9 436,459.5 436.5,460.4 438,460.6 
		439.2,461.4 439.6,462.7 439.2,463.7 439.1,464.5 439.8,465.6 439.8,466.7 440.3,467.6 441.1,467.5 441.6,466.6 441.7,465.5 
		441.4,464 441.7,463.2 442.4,463.5 444.5,462.7 444.6,462 444.1,460.7 	"/>
	<polygon class="st1" points="709.6,548.1 710.9,547 711.3,546.3 710.5,545.6 709.3,545.7 707.8,545.2 706.1,544 703.3,543 
		701.4,543.8 699.8,543.2 698.4,542.2 697.2,541.8 695.7,542.2 694.4,542.2 693.5,541.6 691,542 690.8,545 692.8,548.8 695.5,550.2 
		698.1,550.4 700,549.9 700.6,548.9 700.6,547.5 701.2,546.6 702.3,546 706.6,546.7 707.7,547.7 708.3,548.7 	"/>
	<polygon class="st1" points="932.7,693.7 930.7,694.3 930.4,695 931.3,696.4 929.3,696.7 928.7,697.5 929,698.4 928.2,701.3 
		928.8,702.1 931.3,701.7 932.3,701.1 933.3,700.9 933.7,700.3 934,699.2 934.7,698.8 936.9,699.1 937.7,698 936,695.2 	"/>
	<polygon class="st1" points="635.7,546.4 633.8,545.8 632.7,544.8 631.9,542.6 631.8,541.5 631.9,540.4 631.1,539.2 628.1,538.1 
		625.5,538.1 624.6,539.5 624.4,541.4 625.9,543 628.2,543.3 630.7,546.1 631.3,547.7 632.2,549.5 633.1,549.8 633.8,549.7 
		636.2,550.5 637.8,550 637,547.2 	"/>
	<polygon class="st1" points="1045,756.2 1051.1,755 1051.7,754.9 1052.6,754 1053.5,753.7 1054.6,752.9 1054.1,751.7 1051.8,751.2 
		1050.6,751.6 1049.6,751.6 1048.7,752.3 1047.1,752.7 1046.4,752 1044.3,752.5 1043.1,753.1 1041.7,754.7 1041.2,755.9 
		1043.7,756.4 	"/>
	<polygon class="st1" points="1270.8,781.8 1261.1,779.3 1259.1,780 1260.1,781.3 1261.9,782.6 1262.7,783.7 1261.9,783.9 
		1261.8,784.4 1273.9,788.9 1274.6,787.6 1274.9,785.6 1273.9,783.8 	"/>
	<polygon class="st1" points="1131.6,765.3 1127.7,762.2 1124.5,764.3 1110.2,763.7 1091.1,770.8 1087.8,773.9 1085.6,775.2 
		1076.5,777.7 1066.6,777.9 1061.5,777.1 1057.4,776 1053.5,776.9 1049.6,777.4 1046,778.4 1043,781.7 1046.1,782 1053,781.1 
		1056.4,781.3 1056.9,783 1047.1,792.3 1050.4,793.5 1053.6,793.7 1053.4,792.6 1056.3,791.4 1065.2,791.8 1084.8,790.6 
		1092.5,787.2 1103.7,779.1 1110.6,776.8 1127,776 1134.2,772.3 1137.7,771.2 1141.4,772.1 1142.1,770 1134.9,767.2 	"/>
	<polygon class="st1" points="1354.8,792.7 1352.5,791.8 1348.1,793.3 1338.2,792.6 1331.8,791.1 1297.2,779.2 1286.5,775.7 
		1281.8,773.5 1272.3,767.2 1267.4,765.2 1261.1,765.1 1258.9,764.4 1251.4,757.6 1250.4,755 1249.2,749.5 1248.1,747.3 
		1245.4,745.3 1243.9,745.7 1242.8,747.2 1241.7,748.3 1238,748.6 1230.2,747.8 1226.3,748 1222.9,749.8 1221.3,752.9 1219.9,756.7 
		1224.9,758.2 1229.3,755.1 1230.7,756.4 1229.4,759.7 1231.8,762 1237.9,764.6 1233.3,764.6 1224.4,759.4 1222,760.5 1220.9,760.8 
		1218.4,758.7 1214.9,758 1207.7,757.6 1204.5,756.4 1202.8,756 1200.6,756.2 1199.7,756.2 1197.9,755.4 1196.7,755.4 1196.2,756 
		1196.9,758.2 1196.4,758.9 1194.4,759.2 1192.8,758.8 1189.2,757.4 1188.4,757.5 1186.5,758.4 1185.7,758.3 1184.8,757.3 
		1184,754.7 1183.4,753.9 1177.5,750.9 1170.5,748.7 1142.6,745.1 1128.4,746.8 1114.5,752.3 1111.3,752 1104.6,748.9 1100.8,749.3 
		1102.3,750.4 1103.4,751.5 1104.7,752.5 1106.5,752.7 1106.9,754.3 1105.9,757.2 1108.1,759 1111.7,760.2 1114.8,760.6 
		1120.7,760.4 1138.6,755.6 1140.7,755.5 1142.1,755.7 1145.3,757 1151.5,757.3 1167.3,763.2 1179.1,762.7 1184.2,764.4 
		1185.4,770.3 1201.1,772.2 1210.8,771.4 1220.8,773.1 1228.8,772.7 1238.2,773.9 1242.1,775.3 1242.7,776.4 1242.9,778.2 
		1243.3,779.6 1244.4,779.6 1245.3,778.5 1245.1,777.5 1241.4,772.4 1239.2,770.7 1235.3,768.5 1237.9,768.8 1242.8,771.1 
		1244.1,771.5 1245.8,772.4 1247,772.5 1247.4,770.4 1248.3,769.3 1249.5,768.5 1250.5,768 1255.5,767.7 1261.7,770.3 1266.3,768.8 
		1265.6,774.4 1270.2,777.4 1281.6,779.8 1290.4,784.5 1295.1,785.5 1296.9,782.3 1298.4,784.8 1300.3,786.1 1304.8,788.6 
		1301.4,789.5 1303.1,791.6 1305.6,792.5 1308.3,792.5 1311.3,791.9 1314.1,791.9 1322.2,794 1331.2,793.2 1332.5,794.2 1333.2,797 
		1360,797 1359.6,796.9 	"/>
	<polygon class="st1" points="1243.8,793.8 1234.2,792.3 1230,790.3 1228.5,791.8 1218.6,793.3 1218.7,792.3 1219.3,791.5 
		1214.9,790.8 1205.9,791.4 1198.6,789.1 1190.3,791.2 1187,790.1 1186.1,792 1184.3,791.3 1182.5,791.2 1180.7,791.6 1178.8,792.3 
		1180.2,790.2 1181.6,788.9 1178.5,789.5 1173.7,793 1170.8,794.4 1173.3,796.3 1174.5,797 1182.1,797 1182.5,796.2 1229.1,797 
		1248.1,797.3 1247.7,797 	"/>
	<polygon class="st1" points="778.2,650.3 775.5,648.2 759.9,641.1 758.4,639 754.1,636.8 752.3,638.7 754,641.4 757.3,643.8 
		760.1,645.4 765.5,647.4 770.3,651.2 774,652.5 785.1,654.3 781,652.1 	"/>
	<polygon class="st1" points="840.1,669.7 838.1,667.9 835.8,666.6 830.4,667.4 829.7,667.3 828.7,666.3 827.8,668.3 830.8,668.9 
		839.5,672.4 841.6,673.9 842.9,672.8 853.7,673.1 842.1,671.1 	"/>
	<polygon class="st1" points="985.1,711.9 983.5,711.3 987.2,714.1 1002.5,718.2 1014,718.6 1025.1,717.2 1055.9,708 1061.1,705.2 
		1063,700.2 1064.6,700.7 1065.4,699 1066.4,694.1 1064.6,692.3 1063.3,692.2 1061.8,692.8 1059.9,692.7 1055.8,690 1053.9,689.1 
		1053.1,690.5 1051.9,691.1 1050.2,691 1048.2,690.6 1050.4,690 1050,688.4 1028.1,688.4 995.2,695.9 987.7,695 986.6,695.1 
		983.2,696.2 986.9,701 990.3,704.4 988.4,705.5 987.6,706.8 987.9,708.4 989.3,709.8 988.4,710.2 987.6,710.3 987.2,710.7 
		987.4,712.1 986.3,712.4 	"/>
	<polygon class="st1" points="971.2,703.4 967.3,701.6 962.9,703.4 961.2,699.8 957.1,698.9 947.3,700.6 945,701.8 944.5,703.4 
		945.4,704.9 947.4,705.8 946.5,706.6 946.9,707.7 951.2,707.1 960.5,708.5 973.6,712.5 978.5,712.5 980.3,708.8 975.2,706.6 	"/>
	<polygon class="st1" points="973,776.6 972.5,777.5 972,778.7 969.4,777.8 967.3,778.2 964,780.8 964.1,780.3 964.6,778.9 
		959.1,778.3 952.4,779.9 946.4,782.9 943.2,786.4 941.3,787.3 940.2,788.9 943.4,791.5 944.5,791.2 945.9,790.2 948.1,792.6 
		948.6,796.3 947.9,797 956.4,797 969.2,789 970.8,786.9 972.1,783.8 973.7,781.7 974.5,780.4 974.5,778.9 973.7,776.8 	"/>
	<polygon class="st1" points="943.9,681.5 942,681.6 941,682.4 941.2,683.7 942.6,684.2 944.8,684.5 947.6,684.2 949.6,683.1 
		950.7,681.9 953.2,681.1 962.2,680.3 968.3,677.9 968.7,676.3 961,675.6 956.7,675.2 948.7,676.1 946.2,677.8 947.5,679.6 
		946.3,681.1 	"/>
	<polygon class="st1" points="1128.3,723.2 1121.1,721.9 1113.3,723.1 1098.2,727.9 1087.4,728 1076.9,730.2 1073.5,730.1 
		1070.5,728.4 1068.3,730.6 1052,735.1 1047.9,735.6 1043.8,735.1 1039.9,733.5 1041,732.6 1040.6,731.6 1038.2,730.7 1036.3,729.2 
		1034.8,727.7 1033.3,726.8 1030.8,726.5 1025.6,727 1023.5,727.5 1022.4,728.3 1021.2,730 1020.5,730.3 1016.3,728.2 1011.7,729.6 
		1009.2,730.1 1011.1,731.4 1016.3,732.9 1022.2,736.5 1017.5,738 1011.8,735.5 1005.9,733.6 1000.3,737.2 999.9,735.8 998.6,738.5 
		998.3,739.5 996.8,738.1 993.4,741.8 991.6,742.6 989.2,742 987.3,742.6 986.7,743.2 986.3,744.4 994.6,745.6 996.6,745.5 
		1000.1,746.8 1005.5,746.4 1021.1,748.1 1040.6,747.1 1044.4,745.7 	"/>
	<polygon class="st1" points="672.9,590.7 671.7,591 670.6,592.3 669.3,592 667.4,590.7 666,588.4 666.6,592.2 669.9,594.2 
		673.6,594.3 675.6,592.8 674.2,591.3 	"/>
	<polygon class="st1" points="620.1,557.5 616.7,556.8 617.8,558.6 626.5,563 629.7,563.9 630.2,562.9 626.1,559.6 	"/>
	<polygon class="st1" points="650.4,563.3 647.7,562.3 646.7,562.9 647.1,564.6 646.8,565.6 645.1,566 645.4,568 647.7,570 
		649.7,569.9 650.5,568.4 652,567.6 654.3,566.8 654.3,565.5 	"/>
	<polygon class="st1" points="784.9,620.9 782.7,618.8 781,617.4 779.5,616.9 776.9,616.5 775.6,615.7 774.9,614.5 773.3,610.7 
		772.6,609.5 771.6,609.3 766.5,609.6 755.7,605.2 752.7,604.6 749.4,605.5 751.6,607.6 757.5,611.5 759.2,614 760.8,615.5 
		764.1,617.2 767.7,618.4 770.2,618.9 770,619.9 769.4,620.6 771.5,622.4 774.1,623.1 778.7,623.4 779.6,623.9 780.2,624.9 
		781.1,625.7 782.5,625.8 784,625.5 785.4,625.4 786.7,625.5 788.2,625.9 786.8,623.4 	"/>
	<polygon class="st1" points="745.6,635.5 749.4,632.9 748.1,630.4 733.7,625 727.3,619.5 726.4,618.5 723.9,618.8 721.7,618.2 
		711.6,611.8 709.4,609.8 707.9,607.3 706.9,604 705.6,601.9 703.8,601 701.4,601.2 701.7,597.8 699.8,599.5 698.1,599.2 
		696.3,598.3 693.8,598.2 692.2,597.7 690.7,596.1 689.4,594.2 688.1,592.9 676.7,587.9 672.4,585 670.9,585.1 670.1,585.6 
		673.3,588.3 674.6,590.2 675.8,592.8 694,604.2 699.3,605.1 703.5,607.5 714,620.1 719.4,623.9 728.8,632.4 732.1,634.7 
		735.3,636.2 742.2,638.3 742.9,638.8 744.9,640.1 746.9,640.7 747.3,639.4 746.5,637.5 745.4,637.4 744.1,637.9 742.6,637.3 
		741.3,636.6 736.3,634.8 735.3,633.8 734.6,632.8 733.6,632.2 735.5,631 	"/>
	<polygon class="st1" points="648.5,548.4 651.5,548.6 652.7,546.4 650.7,542.5 648.8,540.6 648.3,539.7 648.4,538.1 648.8,536 
		647.9,533.8 645.9,532.1 643.6,531.5 641.8,532.3 640.6,533.3 643.3,540.3 642.4,543.7 642.6,545.6 646.3,547.5 	"/>
	<polygon class="st1" points="736,597.2 737.6,599 738.1,600 739.2,599.7 740.6,598.1 742.7,599.6 745.2,602.5 747.9,604.2 
		744.9,597.8 740.1,594.2 706.7,579.2 709.2,582.5 710.2,583.6 709.6,584.5 709.4,585.5 713.1,587 721,592.8 726.4,595.3 
		731.1,598.5 735.1,600.2 	"/>
	<polygon class="st1" points="670.2,512.4 682.8,518.2 687.4,523.7 689.8,525.3 691.3,525 693.5,522.8 695,522.1 696.6,522.2 
		701.7,523.9 701.3,525.9 700.7,527.3 699.6,527.9 697.8,528.3 699.9,530.9 701.1,531.6 702.7,532.1 703.1,533.9 700.8,534.5 
		701.2,536 704.6,538.9 708.4,541.1 712.3,542.2 716.4,542.1 716.1,540.7 707.8,537.6 707.4,536.1 711.5,535.5 719.8,536.7 
		723.6,536.8 721.8,536.1 721.1,535.4 720.5,534.2 724,533.3 721.3,531 718,529 714.5,527.9 711.4,528 711,526.4 715.2,527.2 
		720.1,529.3 724.6,530.6 727.7,528.9 724.8,526.9 718.9,523.9 715.8,521.7 711.4,520.4 691.3,508 683.3,506.4 686.3,510.9 
		689.7,514.4 693.3,516.8 696.4,518.3 686.8,514.8 667.8,498.7 657.1,496 656.7,494.4 659.6,493.6 662.2,494.2 664.4,495.1 
		668.1,495.5 676.1,497.7 676,498.7 675.8,501.3 679.5,500.7 685.2,503.4 688.6,503.1 685.2,499.8 682.6,496.6 680.1,494.4 
		673.3,494.1 670.2,492.3 664.6,486.9 658.6,483.3 651.9,481.1 648,482.4 650.4,489.2 642.7,486 627.3,472.7 618.8,466.9 
		618.2,466.6 617.4,466.8 620.5,471.7 624.9,476.1 648.2,493.2 650.5,494.2 651.1,496.2 657.9,502 661,505.3 660.2,506 658.7,507.5 
		657.9,508 658.3,509.5 668.5,512.5 	"/>
	<polygon class="st1" points="541.6,503.9 541.3,502.6 541.2,501.2 540.6,500.1 540.4,499.2 540.9,498.4 543,497.3 543.6,495.6 
		543,493.3 540.4,493.4 538,498.7 537.7,503.6 537.9,505.4 538.2,507.5 539.8,508.7 542.2,508.8 544.4,509.6 545.6,509 543.8,506.2 
			"/>
	<polygon class="st1" points="577.8,512.2 569.6,505.5 568,503.6 565.6,497.3 563.8,493.8 562.4,491.9 562.2,486.1 558.6,483.8 
		553.8,482.9 549.9,481.5 551.1,485.5 554.4,492.5 556,495.4 562.5,501.8 564.9,506.1 562.9,510.7 564.2,512.3 563.1,512.6 
		563.5,514.1 565.7,514.9 568,514.9 569.4,513.5 569.9,510.7 573.4,511.3 576.5,512.8 583,517.7 581.6,517.4 577.8,517.2 
		578.3,518.9 581,519.9 588.5,525.8 594.1,528.8 597.8,527.4 595.3,523.1 	"/>
	<polygon class="st1" points="552.4,469.6 553.9,471 555.2,469.7 557.1,470.6 558,470.6 560.3,481.1 569.1,491.6 579,498.1 
		583.8,496.8 585.8,496.6 586.8,495.7 587.6,494.1 588.3,492.1 586.4,489.1 584.7,491 583.3,490.5 582.8,488.8 583.2,486.3 
		580,483.2 576.5,480.6 573.3,477.5 570.9,472.6 570.3,469.6 570.6,466.4 569.7,463.9 568.6,462.3 565.7,459.3 564.1,457 
		566.2,454.8 564.9,451 560.8,444.6 558.1,437 557.5,433.5 557.9,429 556.3,427.7 557.2,423.9 557.5,419.4 556.7,415.1 554.7,412.5 
		552.4,412 548.4,412.6 545.7,411.3 544.5,410.2 538,402.9 532.7,395.1 530.5,391.1 528.6,385.4 526.6,375.8 524.5,373.3 520,373 
		517.1,374.6 515.5,377.6 514.5,381.2 514,386.7 515,390.1 517.3,392.7 529.1,401 530.7,402.8 539.6,415.8 543.2,419.2 547.3,421.5 
		546.5,423.4 543.5,421.4 544,423.9 545.7,427.4 546.7,428.6 546.9,432.1 546.3,433.8 544.7,434.4 541.7,435.1 539.8,434.5 
		535.6,430.7 534.1,430 529.7,429.5 528.4,430.6 531.1,434.5 530.6,436.2 530.7,438.1 535,440.7 541.5,454.1 545,456.6 546.8,456.2 
		547.9,457 548.7,459.1 551,466.7 	"/>
	<polygon class="st1" points="615,451.6 614.3,450.6 613.8,448.8 620.3,451.6 631,458.7 636.9,461.6 637.6,457.8 635,453.5 
		628,446.8 625.7,445.4 621,444.1 612.6,439.4 611.2,438.8 610.8,437.3 612.8,434.6 611.6,432.2 608.8,431.1 605.5,431.6 
		606.9,433.9 607.6,434.8 604,434.5 600.3,435 601.6,437.2 602.2,437.9 604.9,438.9 606.9,440.5 610.2,444.6 609.1,444.9 608.1,444 
		604.7,442.4 605.9,444.8 606.7,445.6 607.1,446.9 605,446.6 602.8,446.6 600.7,447 598.7,447.7 607.7,453.7 609.3,452.6 611.9,452 
		614.7,452 617.4,453 	"/>
	<polygon class="st1" points="544.8,385.3 543.2,386.1 542.1,387.4 541.3,389.8 544.7,393.1 549.4,396.5 554.5,398.8 559.1,399.1 
		573.1,397.6 577.5,396.1 574.7,394.9 574.3,393.2 576.7,390.8 578.2,392.6 580,401.2 581.2,404.9 582.4,406.5 587.8,407.1 
		597.4,410.5 600.5,410.5 603.5,409.3 605.7,407.7 606,406.1 603.2,404.6 602.8,403.1 604.6,400.7 606.9,401.7 609.1,401.6 
		611,400.6 612.6,398.5 613.6,398.3 609.4,392.4 596.8,385.8 595.1,379 587.6,380.9 584.3,380.7 581.6,379 579.2,374.2 578.9,365.3 
		576.9,361.2 573.5,363.4 568.1,364.2 565.2,363.2 568.9,359.8 565.3,355.1 561.7,351.4 560.8,350.7 559.7,349.9 558.8,348.6 
		558.1,347 560.3,346.4 554.1,344.9 551.8,345.8 550,349.2 551.7,349.1 552.9,350.2 553.6,352.2 554,355 552.8,357.5 553.1,359.4 
		554.1,360.9 555,362.7 555.2,364.9 554.8,367 553.5,370.8 555.9,373.8 553.6,375.9 547.2,377.7 546,379.2 546.3,381.4 547.1,383.7 
		546.7,384.8 	"/>
	<path class="st1" d="M1369.5,138.1l-3.1-4.3l-3.6-0.6l-3.8-3.8l-36,0.3l-7.1-1.5l-5.8-4l-1.1-2.1l-0.8-2.8l-1.2-2.1l-1.8-0.5
		l-6.9,1.9l-3.6,0.1l-3.4-1.3l-3.3-2.5l-3.2-3.2l7.7-6.4l0.8-2.9l-1.7-2.5l-4.1-2.6l-2-1.2l-2.3-4.2l0.6-6.5l11.8-1.3l3.6-6.1
		l-2.7-3l-2.5-0.6l-2.6,0.2l-3.2-0.6l-2.1-0.9l-1-0.9l-0.9-1.1l-1.5-1.6l-1.9-0.7l-1.4,0.8l-1.1,1.5l-2.6,2.3l-1.1,2.5l-1.6,2.3
		l-3.2,0.9l-2-1.2l-4.8-4.5l-1.7-0.8l0-2.2l-1-4.5l-0.5-4.8l1.5-2.5l1.5-1.9l2.9-7.6l0.4-2.4l-1.9-3.2l-3.1-1.5l-3.3-0.8l-2.8-1.3
		l-2.2-2.7l-2.6-7.1l-1.8-3.5l-6.5-4.8l-1.8-1.8l-3.3-1.9l-1-1.3l0-1.2l0.3-1.2l0-1.5l-0.1-0.5c-13.6-1.3-27.2-2.4-41-3.5l-0.1,0.3
		l0.3,3l0,1.6l-0.3,0.2l-1.7,3.4l-1.7,8.2l-1.3,3l-5.6,8.1l-3.9,2.9l-4.2-0.8l-2.2,2.5l-3.9,8.8l-2.5,3.4l-1.2,0.6l-1.1,0.4
		l-1.2,0.2l-1.2,0l-3.8-2.9l-2.7,0.7l-2.4,2.2l-2.6,2l-3.2-0.3l-3.7-2.4l-3.9,1l-6.1-2.6l-3.4-0.1l-13.8,3.7l-1.4,0.9l-2.3,2.9
		l-1.6,1.2l-2,0.5l-18.9-0.2l-14.4,3.9l-1.3,1.3l-0.3,2.1l-0.4,1.9l-2,1l-0.3-1L1068,66l-5.8-2.3l-22.1-0.9l-3.8,0.8l-1.6-0.5
		l-1.4-2.7l-0.9-2.7l-1.8-3.4l-0.7-1.9l-1.9-1.9l-10.2-6.3l-6.9-1.1l-7.5,0.4l-14.5,3.2l-1.1,1.3l-0.7,1.8l-0.7,0.9l-2.1-3.6l-2-0.3
		l-3.5,2.7l-3.3,1.1l-0.7-0.6l-0.4-2.2l-2.1-3.8l-1,3.5l-1.9,0.1l-2-1.1l-0.4-0.2l-2.7-0.1l-0.5-1.7l1-0.6l1.8-1.5l1.2-0.6l-2-1.7
		l-2.9,0.3l-2.8-0.3l-2.3-3.7l-1-2.3l-4.2-7.2l-1.5-2l-9.1-7l-2.2-0.6L926,20.4l-2.9-0.5l-9.7-4l-2.5-1.6l-1.5-2.4l-1.9-1.5
		l-10.9-4.9l-2.2-1.8l-2.9-3.1C855.3,1.6,819.5,3,784.2,5c-17.4,1-34.6,2.2-51.6,3.4l0.5,2.1l1.4,3.5l0.8,3.1l-0.4,3.7l-1.5,3.1
		l-2.8,3.2l-3,2.7l-2.6,1.5l-5.3,2.5l-9.3,9l-0.7,0.2l-7.5,2.2l-2.5,1.4l-2.3,1.9l-1.9,2.5l-1.8,6.7l-2.6,2.9L676,63.5l-3.1,2.8
		l-1.8,4.6l-1.5,6.8l-0.5,7.5l1.6,6.2l3.7,4.8l6,3.7l2.4,0.6l5.2,0.7l2.5,0.9l3.2,3l0,2.8l-1.2,3.4l0,5.3l1.5,4.9l2.3,7.4l0.9,4
		l-0.1,3.3l-0.4,3.1l0.1,3.1l1.5,2.9l3.3,4.3l1,3.5l-1,2.8l-2.9,2.7l-3,1.9l-6.5,2l-11.1,1.1l-1.5,1.2l-2.4,3.4l-1.5,1l-2,0.2
		l-2-0.1l-2,0.2l-1.6,1.4l-0.2,2.5l1.4,2.3l0.8,2.2l-1.5,2.2l-19.2,12.6l-5.7,5.7l-1,2l-0.2,3.1l0.6,0.9l1.4,0.3l2.1,1.1l2.4,2.8
		l1.2,1l1.8,0.7l2.4,0.3l0.6-0.7l0-1.1l0.5-0.9l2-1.1l0.5-0.5l0.6,0.3l3.6,2.4l0,0l0.4,0.2l3.9,3.8l1.6,1.9l-3.5,0.8l-2.1,1.5
		l-1.8,1.7l-4.4,2.9l-0.5,2.1l-0.2,2.1l-0.8,1.3l-1.8,1.7l0.7,1.9l1.9,2.3l1.8,2.6l2.7,6l2.7,4.8l3.6,3.4l10,3.5l-1.3,1.8l-1.9,5
		l-1,1.8l-1.8,1l-5.5,1.4l-8.4,6l-6.4,4.5l-7.8,1l-17.1-8.2l-8.2,1.9l-2.1-1l-2.1-0.4l-4.1,0.6l-3.6-2l-4.5-1.4l-3,0.9l0.7,5.3
		l-1.7,6.4l-6.5,4.5l-7.4,0.4l-4.5-6l-17.4-2.7l-4-2l-0.4-1.2l-0.5-4.4l-0.8-1.8l-1.3-1l-1.3-0.3l-1.3-0.2l-7-3.1l-2.8-1.7l-2.3-2.6
		l-1.1-3.2l-1-4.4l-1.3-3.6l-2.2-0.6l-2.6,2l-0.9,1.8l-0.8,5.4l-1.1,3.1l-2.9,5.9l-1,2.7l-0.3,3.4l0.9,6.7l0,3.6l-1.1,4.6l-5.3,6.6
		l-2.3,3.8l-5.5,5.4l-7.5,2.7l-8.2,0.6l-7.4-1.2l-3.9,0.1l-3.9,2.4l-7.1,5.8l-4,2l-0.4,0l-4.2,0.9l-4.8-0.3l-5-2l-2.9-1.7l-2.7-0.7
		l-7.4,0.4l-1,1.1l-0.1,1.8l0.7,2.6l4.7,3.3l-1.4,3.5l-6.9,5.5l-1.7,3.1l-0.9,2.7l-1.4,1.8l-9.3,1.1l-2.9-0.1l-2.9-1.7l-9.2-3
		l-21.6,6.8l-8.6-5.4l-3.7,0.5l-8.5-1.6l-2-0.8l-1.1,0.3l0,3.4l1.4,3.3l4.5,5.6l0,1.9l-0.2,0.7l1.2,0.9l-0.9,1.9l8.8,13l2.6,1.7
		l0.4,1.5l-2.1,1.6l0.8,2.6l2.3,2.4l2.4,1.4l1.7-0.1l4.5-1l2.3,0.5l-2,2.9l-1.3,1.2l-1.6,0.8l1.1,1.6l1.4,1.1l1.6,0.6l1.9,0.4
		l0.4,1.5l-1.8,0.5l-1.1,1l-0.6,1.4l-0.2,1.6l2.5,0.7l1.7,1.8l0.7,2.4l-0.5,2.7l1.5,2.1l0.5,1.9l-0.3,1.7l-1.1,1.2l0.4,1.5l1.7,0.7
		l0.9,0.9l0.2,1.2l-0.4,1.8l2,0.5l0.6,1.5l0.2,2.2l0.4,2.6l1.2,1.8l2-0.4l3.8-2.3l7.7-2.5l4-0.4l3.7,0.7l-14.4,4.9l-3.6,4l5.6,4.8
		l-0.4,1.2l-0.3,2.6l-0.3,1.7l3.6-0.3l3.4,1.4l2.7,1.8l1.7,0.8l11.9,9.9l8.9,5.5l6.2,8.2l2.5,1.7l-0.5,1.4l-0.4,1.8l-0.5,0.9
		l0.4,1.4l2.4,1.8l1.8,0l4.3-2.3l-0.6,3.9l-1.9,1.9l-2.7,0l-2.5-2l-0.8,1.8l2.7,1.9l3.3,1.1l2.8,0.2l1.8-1l1.6,1.5l-0.6,2l1.7-0.7
		l0.5,0.1l-0.2,0.8l0.1,1.8l-0.2,0.9l1.9-0.3l5.5,0.8l1.4,0.6l1.5,3.4l0.9,3.9l1.3,2l2.1-2.1l-1.1-0.8l-2.5-3.4l0.1-2.7l-1.3-1.8
		l-2.2-0.9l-2-0.3l0.8-1.9l1.9,0.6l1.6-0.8l1.6,0l2,3.5l0.7-0.7l0.1-1.3l2.9,0.9l3-0.4l6-1.9l-1.4-1.4l-1-0.9l-1.2-0.2l-1.8,0.6
		l0.1-2.1l-1.4-2.7l0.7-3.4l0.4-1.2l1.1-1.2l-0.5-1.7l-1.2,0.3l-0.4-1.5l1.2-0.3l-2-2.2l-1.1-0.9l-1.7-0.6l2.7-0.7l3.4-2l2,0.5
		l-0.1-1.9l0.8-0.2l-0.5-1.7l-1.1-1l-0.3-0.7l0.7-0.3l1.5,0l0.1-2.5l-0.4-2.2l-0.7-1.9l-1.1-1.4l0.9-0.2l1,1l0.7-1.6l1.1-5.3
		l1.3-2.3l-1.3-2.1l-1.3-0.2L485,428l-2.1-0.7l-1.2-1.7l-0.4-4.5l-1.4-2.6l2.1-0.2l0.5,1l0.2,1.8l1.1,1.6l4.4,2.3l2.6,4l-0.2,2.2
		l-0.8,2.5l0.9,4.8l1.1-0.3l0.3-2l1-2.7l1.5-2.3l1.8-1.3l1.9,0l1.5,0.4l1.4-0.2l1.5-2l0.9-4.8l-1.1-5.7l-2.4-4.8l-3.5-2.4l-0.4-1.5
		l0.8,0.3l2.1,0.5l-1.9-4.3l-0.4-1.6l0.2-2.2l1.4,1.4l2-3.4l1.3-4l-0.7-3.7l-3.6-2.6l5.6,0.5l2.4-6.5l0.1-1.3l0.1-8.2l-2.6-17
		l0.1-8.9l1.2-8.1l2-6.5l2.4-3.2l2.8-0.2l3.4,0.9l6.9-0.2l20.6,4.4l3,2.1l1.8,0.7l1.7-0.5l1.2-1.4l0.1-2l-0.6-0.3l-4-2.7l7.4,2.9
		l2.4,1.5l-1.7,2.8l2.2,2.9l3.6,2.2l2.7,0.7l11.6,9.1l21.9,9.2l11.7,2.8l3.1,1.3l2.4,2.3l1.8,4l6.7,8.5l0,0l8.9,11.4l2.7,5l0,4.8
		l-0.6,4l0.4,15.9l0.7,4.3l3.9,12.9l1.9,4.7l2.2,3.8l1.2,3.5l-1.1,3.4l5,7.2l23.8,21.8l1.6,1.8l1.4-0.3l6.7,3l1,0.9l5.3,1l6.1,3.9
		l10.8,9l29.6,17.7l3,1.8l18.6,3.5l1.6,0.5l6.8,5.2l1,0.6l11.4-1.4l2.7,1l0.2,2.7l-3.6,1.4l-13.9,1.5l-2.9-0.3l-13.9-3.7l-5.1-0.5
		l-5.9-3l-3.6-0.3l2.1,2.5l2.3,2.1l2.4,1.3l2.5,0.1l-0.8,2.5l-0.5,0.9l-1.4,0.9l4.5,7.5l-2.8,0.4l-2.2-1.1l-4.8-3.6l-9.7-3.3
		l0.8,0.9l1.7,2.6l-1.3,0.3l-0.9-0.6l-0.2,0.5l-1.2,0.7l4.6,2l-0.6,4l-3.2,2.7l-2.6-2.1l-2.5-4.1l-2.9,0.2l-2.6,2.6l-1.3,2.9
		l4.1,1.4l4.7,3.6l2.8,4.8l-1.6,4.9l11.3,6.8l3.2,1.2l-0.1,2.6l1.1,1.5l1.8,0.8l2.2,0.6l9.8,6.3l0.1,0.7l9.4,6.8l3.7,0.4l3.9,2.4
		l6.2,5.5l12.1,8.7l1.7,1.7l1.1,1.4l1.3,1.2l2.3,1l1.4,0.3l1.6,0l2.7-0.3l2.8,0.4l2.8,1.9l4.8,4.4l0.4,0.2l5.6,2.6l12.4,2.5l5.5,2.8
		l0.4-0.5l0.7-0.3l1.1,0.2l0.5,1.7l-2.7,0.5l-2.8,0l-5.7-0.9l3.6,2.8l4.6,0.1l4.5,0.8l3.1,4.7l3.1,2l11-2.1l3.9,0.2l2.4,1.4l7.8,2.1
		l1.6,1.1l3.3,3.1l1.3,0.8l1.2,0.1l1.6-0.1l1.2-0.3l2.8,1.5l5,2.4l1.4-0.7l-1.3-4.3l2.4,1.4l0.8,1.9l-0.6,2.1l-2,1.5l2,0.4l1.9,1.2
		l0.6,1.5l-1.6,1.1l-1.3-0.1l-1.6-0.3l-1.7,0.3l-1.6,1.8l2.8-0.7l8-0.4l0.5,1.8l-6.2,1.6l-1.5,1.7l2,3.2l-0.8,2.1l1.7,1.1l-0.9,1.8
		l0.8,0.1l2,0.8l-1.3,1.6l-0.7,0.7l0.4,1.5l3-0.8l1.8,1l0.1,1.7l-2.7,1l4.1,0.3l1.7,0.8l1.1,2.1l0.8-1.2l0.9-0.7l2.6-1l-0.3,2
		l1.4,2.1l-0.2,1.5l-1.3,1.5l-1.3,0.2l-0.8,0.7l0.4,2.6l0.9-0.1l-0.2-1.8l1.7,1.5l3.8-1l2.4,0.9l-0.4-1.6l0.8-0.2l0.2-0.1l3,1.4
		l2.2,0.5l4.5-0.9l5.9,0.7l2.6-0.4l-1.1-2.4l10.3-2.8l-2.2-3l-2.8-1l-5.9,0l-0.4-1.5l20.3-6l6.4-4l2.9-1.3l1-0.8l2.6-2.8l1.8-1.1
		l16.4-4l4.1-0.1l3.3,1l-2.4,2.9l-3.1,2.6l-3.6,1.9l-3.4,0.9l0.4,1.6l12.6-3.4l6.8-0.1l0.8-0.4l1.2-1.5l0.9-0.6l1,0.3l0.8,0.9
		l0.8,1.6l18.3,7l12.1-0.6l11,1.7l22.4-2.6l1.6,0.7l1.6,1.2l2.2,1.2l5.5,1.9l21.3,16.3l0.8,0.3l2.3,0l0.8,0.2l0.5,0.8l1.3,2.8
		l0.7,0.9l2.4,2.3l1.5,1l1.3,0.3l1.8-0.2l1.9,0.3l1.6,0.9l1.8,2.7l1.6,0.6l3.2,0.7l7,3.2l27.5,6l11.2,8.8l1.2,1.1l7,3.6l2.7-4.1
		l0.6,0.9l1.6,1.9l-0.9,1.9l1.6,1.6l1.6,0.5l1.8-0.2l1.6-0.4l-2.6,3.5l2-1.3l2.5-2.6l2.5-1.7l2.6,0.3l-3.3,3l-0.8,2.5l1.3,2.6
		l3.5,3.6l2.3,1.9l3.7,2.3l3.7,1l2.2-1.8l6.1,1.6l8.5-4.3l3.7-4.7l-2.2-6.2l-0.1-0.1l-8.4-10.7l-9-6.3l-27-9l-1.8-0.6l-3.3-2.4
		l-3.2-3.8l-2.7-4.4l-1.7-2.1l-2.2-1.2l-4-1.3l-8.6-4.5l-9.2-8.2l-6.8-10.5l-2.1-20.3l-4.2-5.3l-6.2-2.1l-16.9,1.8l-11.3-2.8
		l-11.2-5.7l-10.7-7.4l-33.8-20.1l-22.7-9.9l-3.4-3.2l-2.8-4.6l-1.6-3.7l-2.2-3l-8.6-4.6l-7.5-6.2l-10.5-6.2l-6.7-5.9l-2.5-2.2
		l-3.5-2.4l-3.5-1.5l-8.1-0.7l-2.1-2.4l-1.7-3.2l-3.1-3l-1.9-0.2l-4.3,1.5l-1.8,0.3l-1.8-0.5l-2.3-1l-4.2-2.4l-3.6-3.4l-6.1-8.1
		l-3.6-3.6l-9.4-6l-3.8-3.2l-5.8-9.2l-3.6-6.9l-1.2-3.5l-0.2-2.7l0.7-4.2l0.1-2.1l-0.5-4l-1.1-2.2l-2.4-1.3l-4.1-1.4l-3.2,0
		l-1.9,0.4l-0.5,1l-0.4-1.9l0.9-1.2l1.2-1.4l0.5-2l-1-3.6l-2.4-4.1l-7.2-10.5l-2.1-4.3l-2.2-3.9l-2.7-1.9l-3.8,0.3l-5.3,4.4
		l-3.6,0.5l-4.5-2.8l0.3-4.1l1.8-4.3l0-3.3l1.3-1.4l-1.4-3l-1.6-2.7l-1.9-1.9l-2.4-0.4l-4.2,0.5l-2.4-0.1l-2-0.6l-3.1-2.7l-2.9-5.5
		l-2.5-2.1l-1.3,0.2l-1.2,1.2l-1.3,0.7l-1.6-0.9l-1.2-1.9l-1-2.3l-1.3-2.1l-1.4-1l-2.1,0.5l-0.8,1.7l-0.3,2.3l-0.9,1.8l-1.3,0.9
		l-3,1l-1.4,1l-2.4,1.1l-1.8-1.2l-1.7-2.1l-1.9-1.8l-4.7-1.7l-1.2-1l-6.2-5.9l-3-3.6l-1.3-3.9l1.6-3.9l3.1-2l2.6-2.2l-0.3-4.4
		l-2.8-4l-3.8-3.5l-3.6-4.2l-2.2-5.8l0-1.8l0.1-2.7l2.2-8.4l-0.4-4.4l-3.9-6.7l-1.2-4.4l1.2-11.4l-0.3-3.9l-4.4-13.9l-0.3-1.9
		l0.5-5.7l1.3-2l2.8-4.5l8.6-3.9l16.2-3.8l3.7-1.8l1.8-0.4l2.3,0.5l2.1,1.8l0.5,2.1l-0.1,1.8l0.2,1.1l1.8,0.7l3.9-0.2l2.5,1.1
		l3.7,3.6l6,8.3l3.9,3.1l19.5,11.3l5.5,1.7l7.2,1l6.5-0.3l3.8-2.2l0.1-10.9l1.7-7.3l0.3-2.2l-0.3-2.9l-0.8-1.4l-0.4-1.4l0.6-2.5
		l1.3-1.5l4-2.6l1.5-1.8l1.3-4.3l2.2-13.7l6.5-7.6l9.8-2.2l36,1l4.1-1.6l1.6-2.4l-0.2-1.9l-0.6-2l0.1-3.1l1.2-2.1l1.7-1.3l1.4-1.6
		l0.2-2.8l1.1-1.3l1.3-2.5l0.8-2.3l0.2-1.2l3.6-5.1l1.8,1l2.6,4.6l0.8,1.8l0.5,2.1l1.2,1.1l3.4-1.3l-0.8-1.5l-1.1-1.5l2.7,0.2l2.7,2
		l2.1,0.7l0.8-3.4l1.2,1.6l0.6,1.3l0.3,1.5l-0.3,2.2l0.9-1.2l2.2-2.4l0.8-1.1l5.2,6.3l8.6,3.4l4.9,0.9l0,0l11.8,2l1.5-1.6l7.8-2.6
		l0.4-1.3l1.4-7.9l7.7,2.5l3.4,0.5l6.5,2.2l1.8,0.9l2.7,0.7l3-1.1l5.1-3.3l0.2-2.5l0.6-1.1l1.5,0.4l1.4,1.3l0.5,1.4l-0.2,1.4
		l-0.8,1.8l2.3,0.1l2-0.9l3.4-3.2l-0.3,5.4l-0.4,1.8l1.1-0.8l8.1-3.4l3.8-0.6l1.8-0.8l2.9-3.1l4.4-8.2l3.1-2.8l5.6-1.2l5.8,1.5
		l5.7,3.3l12.7,9.6l3.8,2.1l3.7,0.4l1.5-0.6l4.4-3.4l4.4-2.1l1.2-1.1l2.1-3.4l6.9-15l2.1-2l2.6-0.7l3.1,0.7l11.6,5.9l4.1,0.8
		l3.4-0.3l3.7-0.9l3.4-1.8l2.4-2.6l0.5-2.8l-0.7-3l-0.4-3.1l1.2-2.9l3.9-1.9l4.5,0.5l9.1,3.4l2.8,0.4l12.1-2.1l3.5,0.5l3.6,1.7
		l7.9,5l4.8,1.6l4.9,0.5l4.1-1l-1.3-3.2l-1.6-2.8l-0.3-1.6l-0.1-0.5l2.2-1.7l1.3-0.2l2.9-0.2l1.3-0.2l1.1-0.8l1.9-2l1-0.5l1.5,0.2
		l1.1,0.9l1.9,2.8l1.5,1.6l1.6,1.3l1.5,0.3l1.3-1.3l0.2-1.3l0.1-3l0.7-1.1l1-0.5l1.2,0.4l1.1,0.9l9.7,11.1l2.7,1.8l2.2,0.4l4.8-0.8
		l1.2,0.1l0.9,0.5l1.6,2.1l0.9,2.4l1.7,1.6l0.5,0.7l0.1,2.5l-2.9,3.8l-0.6,2.6l3.6,6.3l7.4,4.7l8,2.6l5.6,0.4l19.2-5.7l1.7-1.1
		l-5.5-5.9l-1.8-4.6l3.9-3.8l2.5,0.1l4.4,2.9l2.6-0.4l1.6-1.8l1-2.4l1.5-5.2l1.3-1.4l1.7-1.3l0.7-2.1l-1.6-3.4l-2-1.3l-3,2.2
		l-2.3-1.2l-0.9-2.3l-0.3-3l0-3.1l-0.2-2.4l-0.9-2.4l-3.3-6.6l-2.1-5.6l-1.1-2.1l-2.1-2.6l-1.7-1.1l-2.1-1.2l-1.8-1.5l-0.8-2
		l1.9-2.9l9.7-1.5l3.5-1.8l-0.4-4l-3.4-3.9l-2-3.2l3.4-1.9l2.3,0.6l4.4,3.7l2.3,1.3l3.5,0.4l3.7-0.8l6.7-2.8l0.7-0.9l0.5-2.4
		l1.1-0.8l0.9,0.2l1.9,1.7l1,0.4l14.3-4.6l1.8-3.1L1369.5,138.1z M621.5,379.7L621.5,379.7l-0.8-3.1L621.5,379.7z M957.1,599.4
		l-9.4,11L957.1,599.4l0.7-1.8l0,0L957.1,599.4z M934.5,640.4l0.8-1.3l0.9-2.2l1-1.3l1.1-1.1l3.3-2.5l4.3-2.3l3.5-2.9l1.1-1.7l0-1.6
		l0,1.6l-1.1,1.7l-3.5,2.9l-4.3,2.3l-3.3,2.5l-1.1,1.1l-1,1.3l-0.9,2.2L934.5,640.4l-1.6,0.7l0,0L934.5,640.4z M920.7,641.4l1.2-1.6
		l0.7-0.1l0,0l-0.7,0.1L920.7,641.4l-7.5,18.1L920.7,641.4z M716.8,113.1l1.4-0.4h0L716.8,113.1l-2.6,1.9L716.8,113.1z M688.1,207.7
		L688.1,207.7l0,1.7l0,0L688.1,207.7z M818.4,180.9l-1.7,2.7L818.4,180.9l1.3-7.8l-2.8-6.8l-0.2-3.4l-2.8-6.1l-0.3-2.4l-0.1-1.8
		l1.6-4.8l0.7-1l0,0l-0.7,1l-1.6,4.8l0.1,1.8l0.3,2.4l2.8,6.1l0.2,3.4l2.8,6.8L818.4,180.9z M845.3,134.7l2.2-2.5l0.9-3.7l-0.9,3.7
		L845.3,134.7L845.3,134.7z M1008.3,104.2l8.2,3.1l0.8,1l0.8,3.2l-6,22.9l6-22.9l-0.8-3.2l-0.8-1L1008.3,104.2L1008.3,104.2z
		 M990.4,98.6l1,0.6v0L990.4,98.6l-0.9-0.1L990.4,98.6z M964.9,202l-2.2-1.1l-0.5-0.7l-0.4-1.9l0.4-1.8l0.4-1.5l0.1-1l-0.1-1.3
		l0.2,1.3l-0.1,1l-0.4,1.5l-0.4,1.8l0.4,1.9l0.5,0.7L964.9,202l16,5l0,0L964.9,202z M1028.5,136.5l-0.2,1.7L1028.5,136.5
		L1028.5,136.5z M1249.6,105.9l2.3,1.7l0,0L1249.6,105.9L1249.6,105.9z M1214.4,155.7l1.5-1.4L1214.4,155.7l-0.9,1.4l0.2,2.2l1.3,7
		l0,0l-1.3-7l-0.2-2.2L1214.4,155.7z"/>
</g>
<g id="Group_13" transform="translate(4210)">
	<path id="Path_61" class="st2" d="M-3291.9,27c-10,0-18.1,8.1-18.1,18.1c0,0.8,0.1,1.5,0.2,2.3c1.5,14.2,16.8,30.5,16.8,30.5
		c0.2,0.3,0.5,0.5,0.8,0.6l0,0l0.5,0.2l0.5-0.2l0,0c0.3-0.2,0.6-0.4,0.8-0.6c0,0,15-16.4,16.5-30.5c1.3-9.9-5.7-18.9-15.5-20.2
		C-3290.2,27-3291,27-3291.9,27z M-3291.9,56.8c-6.4,0-11.7-5.2-11.7-11.7s5.2-11.7,11.7-11.7s11.7,5.2,11.7,11.7c0,0,0,0,0,0
		C-3280.2,51.5-3285.4,56.7-3291.9,56.8z"/>
	<path id="Path_61-2" class="st2" d="M-3436.9,88c-10,0-18.1,8.1-18.1,18.1c0,0.8,0.1,1.5,0.2,2.3c1.5,14.2,16.8,30.5,16.8,30.5
		c0.2,0.3,0.5,0.5,0.8,0.6l0,0l0.5,0.2l0.5-0.2l0,0c0.3-0.2,0.6-0.4,0.8-0.6c0,0,15-16.4,16.5-30.5c1.3-9.9-5.7-18.9-15.5-20.2
		C-3435.2,88-3436,88-3436.9,88z M-3436.9,117.8c-6.4,0-11.7-5.2-11.7-11.7s5.2-11.7,11.7-11.7s11.7,5.2,11.7,11.7c0,0,0,0,0,0
		C-3425.2,112.5-3430.4,117.7-3436.9,117.8z"/>
	<path id="Path_61-3" class="st2" d="M-2986.9,36c-10,0-18.1,8.1-18.1,18.1c0,0.8,0.1,1.5,0.2,2.3c1.5,14.2,16.8,30.5,16.8,30.5
		c0.2,0.3,0.5,0.5,0.8,0.6l0,0l0.5,0.2l0.5-0.2l0,0c0.3-0.2,0.6-0.4,0.8-0.6c0,0,15-16.4,16.5-30.5c1.3-9.9-5.7-18.9-15.5-20.2
		C-2985.2,36-2986,36-2986.9,36z M-2986.9,65.8c-6.4,0-11.7-5.2-11.7-11.7s5.2-11.7,11.7-11.7s11.7,5.2,11.7,11.7c0,0,0,0,0,0
		C-2975.2,60.5-2980.4,65.7-2986.9,65.8z"/>
	<path id="Path_61-4" class="st2" d="M-3231.9,616c-10,0-18.1,8.1-18.1,18.1c0,0.8,0.1,1.5,0.2,2.3c1.5,14.2,16.8,30.5,16.8,30.5
		c0.2,0.3,0.5,0.5,0.8,0.6l0,0l0.5,0.2l0.5-0.2l0,0c0.3-0.2,0.6-0.4,0.8-0.6c0,0,15-16.4,16.5-30.5c1.3-9.9-5.7-18.9-15.5-20.2
		C-3230.2,616-3231,616-3231.9,616z M-3231.9,645.8c-6.4,0-11.7-5.2-11.7-11.7s5.2-11.7,11.7-11.7s11.7,5.2,11.7,11.7c0,0,0,0,0,0
		C-3220.2,640.5-3225.4,645.7-3231.9,645.8z"/>
	<path id="Path_61-5" class="st2" d="M-3475.9,526c-10,0-18.1,8.1-18.1,18.1c0,0.8,0.1,1.5,0.2,2.3c1.5,14.2,16.8,30.5,16.8,30.5
		c0.2,0.3,0.5,0.5,0.8,0.6l0,0l0.5,0.2l0.5-0.2l0,0c0.3-0.2,0.6-0.4,0.8-0.6c0,0,15-16.4,16.5-30.5c1.3-9.9-5.7-18.9-15.5-20.2
		C-3474.2,526-3475,526-3475.9,526z M-3475.9,555.8c-6.4,0-11.7-5.2-11.7-11.7s5.2-11.7,11.7-11.7s11.7,5.2,11.7,11.7c0,0,0,0,0,0
		C-3464.2,550.5-3469.4,555.7-3475.9,555.8z"/>
	<path id="Path_61-6" class="st2" d="M-3680.9,281c-10,0-18.1,8.1-18.1,18.1c0,0.8,0.1,1.5,0.2,2.3c1.5,14.2,16.8,30.5,16.8,30.5
		c0.2,0.3,0.5,0.5,0.8,0.6l0,0l0.5,0.2l0.5-0.2l0,0c0.3-0.2,0.6-0.4,0.8-0.6c0,0,15-16.4,16.5-30.5c1.3-9.9-5.7-18.9-15.5-20.2
		C-3679.2,281-3680,281-3680.9,281z M-3680.9,310.8c-6.4,0-11.7-5.2-11.7-11.7c0-6.4,5.2-11.7,11.7-11.7s11.7,5.2,11.7,11.7
		c0,0,0,0,0,0C-3669.2,305.5-3674.4,310.7-3680.9,310.8z"/>
</g>
</svg>
