<svg xmlns="http://www.w3.org/2000/svg" viewBox="5095 391.466 149.929 25.634">
  <defs>
    <style>
      .cls-1 {
        fill: #c7c8c9;
      }
    </style>
  </defs>
  <g id="Group_10" data-name="Group 10" transform="translate(5095 391.466)">
    <path id="Path_72" data-name="Path 72" class="cls-1" d="M51.7,15.3h3.524l-2.114-4.4Z" transform="translate(-6.157 -1.298)"/>
    <path id="Path_73" data-name="Path 73" class="cls-1" d="M6.2,11.6V16l4.757-1.85Z" transform="translate(-0.738 -1.382)"/>
    <path id="Path_74" data-name="Path 74" class="cls-1" d="M85.3,15.3h3.524l-2.2-4.4Z" transform="translate(-10.159 -1.298)"/>
    <path id="Path_75" data-name="Path 75" class="cls-1" d="M70.445,8.9H69.3v4.757h1.145a2.487,2.487,0,0,0,2.378-2.29A2.559,2.559,0,0,0,70.445,8.9Z" transform="translate(-8.254 -1.06)"/>
    <path id="Path_76" data-name="Path 76" class="cls-1" d="M163.721,16.669V12L158.7,14.643Z" transform="translate(-18.901 -1.429)"/>
    <path id="Path_77" data-name="Path 77" class="cls-1" d="M134.23,4.7H16.278v8.1L2.8,6.638V19.323l13.478-5.55v7.664H134.23V14.126l13.654,6.166V6.374l-.7.352L134.23,13.333ZM3.769,17.914V8.047l11.364,5.2Zm31.977,1.145a2.34,2.34,0,0,0,.088-1.233c-.088-.44-2.026-6.959-2.026-6.959l-3.524,8.545H30.02l-3.964-7.928s-1.85,5.99-2.026,6.431a2.709,2.709,0,0,0,0,1.233H21.563a3.959,3.959,0,0,0,.969-1.321c.176-.7,2.29-8.28,2.467-8.809a4.86,4.86,0,0,0-.088-1.85h3.524l2.643,5.814,2.2-5.814H37.86A2.732,2.732,0,0,0,37.507,9.1c.176.881,2.114,7.84,2.378,8.545a5.948,5.948,0,0,0,.7,1.409Zm15.24,0a1.758,1.758,0,0,0,0-1.057c-.264-.617-.881-2.114-.881-2.114H45.436s-.44,1.5-.617,1.938a3.3,3.3,0,0,0-.088,1.233H42.7a13.05,13.05,0,0,0,.7-1.5c.176-.529,2.467-8.192,2.643-8.809A1.921,1.921,0,0,0,45.7,7.167h4.493s4.316,9.69,4.581,10.395a5.4,5.4,0,0,0,1.057,1.5Zm13.742,0a3.149,3.149,0,0,0,.176-1.321,3.942,3.942,0,0,0-.969-2.643,3.707,3.707,0,0,0-2.467-.617v3.259a4.28,4.28,0,0,0,.352,1.233H57.5a2.567,2.567,0,0,0,.352-1.321V8.928a4.556,4.556,0,0,0-.44-1.762H65.08A3.694,3.694,0,0,1,68.515,10.6a3.567,3.567,0,0,1-2.907,3.171A6.892,6.892,0,0,1,67.987,15.8a7.153,7.153,0,0,1,.881,2.2,5.2,5.2,0,0,0,.529,1.057Zm15.856,0a1.758,1.758,0,0,0,0-1.057c-.264-.617-.881-2.114-.881-2.114H75.034s-.44,1.5-.617,1.938a3.3,3.3,0,0,0-.088,1.233H72.3a13.05,13.05,0,0,0,.7-1.5c.176-.529,2.467-8.192,2.643-8.809A1.921,1.921,0,0,0,75.3,7.167h4.493s4.316,9.69,4.581,10.395a5.4,5.4,0,0,0,1.057,1.5Zm12.245.264a8.776,8.776,0,0,1-4.316-.881L87.983,15.8S90.8,18,92.211,18c1.321,0,1.762-.7,1.762-1.321,0-1.057-.881-1.409-3.083-2.643s-2.907-2.731-2.907-4.052,1.145-3,3.788-3A8.342,8.342,0,0,1,96.44,8.136v2.026A6.344,6.344,0,0,0,93,8.576a1.089,1.089,0,0,0-1.145,1.057c0,.529.617,1.409,2.467,2.29s3.259,1.409,3.259,3.788C97.585,18.178,95.206,19.323,92.828,19.323Zm16.913-.264a16.308,16.308,0,0,0-.793-2.731c-1.5-3.259-2.114-2.643-2.114-2.643l-1.674,1.85v2.378a4.322,4.322,0,0,0,.264,1.145h-4.581a1.5,1.5,0,0,0,.529-.969v-9.6a2.152,2.152,0,0,0-.7-1.409H105.6a3,3,0,0,0-.617,1.409c0,.7.088,4.4.088,4.4l5.462-5.9h2.731a6.112,6.112,0,0,0-1.409.881c-.44.44-2.643,3-2.643,3a1.452,1.452,0,0,1,1.409.969c.617,1.233,1.938,4.757,2.467,5.726l.793,1.321Zm14.535,0a1.758,1.758,0,0,0,0-1.057c-.264-.617-.881-2.114-.881-2.114h-4.669s-.44,1.5-.617,1.938a3.3,3.3,0,0,0-.088,1.233H116a13.048,13.048,0,0,0,.7-1.5c.176-.529,2.467-8.192,2.643-8.809a2.343,2.343,0,0,0-.352-1.586h4.581s4.316,9.69,4.581,10.395a5.4,5.4,0,0,0,1.057,1.5ZM146.915,7.871V18.794l-11.452-5.2Z" transform="translate(-0.333 -0.56)"/>
    <path id="Path_78" data-name="Path 78" class="cls-1" d="M134.8,15.3h3.612l-2.2-4.4Z" transform="translate(-16.055 -1.298)"/>
    <path id="Path_79" data-name="Path 79" class="cls-1" d="M136.187,7.84,136.011.264l-2.29,1.321-1.409.176H17.97l-2.026-.617L13.83,0l-.176,7.576L0,1.145V23.7l13.39-5.99v7.4l2.2-1.5L17,23.256H133.016l1.409.881,2.114,1.5V18.147l13.39,6.078V1.321ZM148.96,22.727l-13.39-6.078v7.135l-1.5-1.057v.088l-.617-.44-.088-.088H16.825l-1.674.44-.881.617V16.209L.881,22.287V2.555L14.447,8.985l.176-7.4.881.529,2.2.7H132.311l2.114-.44V2.2l.617-.352.176,7.488.617-.264,12.949-6.166v19.82Z"/>
  </g>
</svg>
