<svg xmlns="http://www.w3.org/2000/svg" viewBox="4408 47 200 55.448">
  <defs>
    <style>
      .cls-1 {
        fill: #ed1c24;
        fill-rule: evenodd;
      }

      .cls-2 {
        fill: #c7c8ca;
      }
    </style>
  </defs>
  <g id="Group_8" data-name="Group 8" transform="translate(4408 47)">
    <path id="Path_62" data-name="Path 62" class="cls-1" d="M133.62,22.9,128.9,56.689h8.072l3.485-24.173L143.9,56.689h9.043l10.5-24.217-3.4,24.217h8.822l4.72-33.789H159.645l-9.131,21.217L147.691,22.9Z" transform="translate(-72.041 -12.799)"/>
    <path id="Path_63" data-name="Path 63" class="cls-1" d="M232.487,50.9a6.791,6.791,0,0,1,1.764-3.132,4.229,4.229,0,0,1,3.264-1.323,3.435,3.435,0,0,1,2.735,1.1,4.174,4.174,0,0,1,.529,3.352ZM247,59.238c-2.25.662-3.926,1.059-5.161,1.323a17.737,17.737,0,0,1-3.838.353,7.983,7.983,0,0,1-4.72-1.323,3.935,3.935,0,0,1-1.456-4.058H249.47l.441-3.132c.441-3.661-.309-6.484-2.426-8.513-2.161-2.073-5.249-3.088-9.4-3.088-4.543,0-8.161,1.235-10.851,3.661a15.315,15.315,0,0,0-4.852,9.572c-.529,4.146.176,7.411,2.206,9.7,2.029,2.382,5.6,3.529,10.631,3.529,1.985-.044,3.705-.088,5.249-.265,1.588-.221,3.088-.4,4.543-.706Z" transform="translate(-124.194 -22.803)"/>
    <path id="Path_64" data-name="Path 64" class="cls-1" d="M289.707,48.255l-.794,5.867c-.044.4-3.4,24.129-3.4,24.129H275.9l5.073-36.127q4.764-.529,8.072-.926a61.123,61.123,0,0,1,6.131-.4,26.4,26.4,0,0,1,5.867.75,9.719,9.719,0,0,1,5.558,3.794c1.632,2.029,2.161,5.117,1.632,9.352a17.476,17.476,0,0,1-3.794,8.778,10.1,10.1,0,0,1-8.161,3.794,13,13,0,0,1-5.867-1.279l-.838-7.764.088.221a3.952,3.952,0,0,0,3.529,1.941,4.333,4.333,0,0,0,3.749-1.985,10.278,10.278,0,0,0,1.764-4.367c.265-2.029,0-3.617-.926-4.72a4.835,4.835,0,0,0-4.1-1.676A9.57,9.57,0,0,0,292,47.77C291.427,47.9,290.721,47.99,289.707,48.255Z" transform="translate(-154.197 -22.803)"/>
    <path id="Path_65" data-name="Path 65" class="cls-1" d="M358.846,66.693h9.616l2.691-19.144a5.383,5.383,0,0,0-1.72-4.72c-1.412-1.367-4.058-2.029-8.028-2.029a40.794,40.794,0,0,0-6.087.441c-2.117.309-4.191.662-6.352,1.1l-1.588,6.176a46.157,46.157,0,0,1,6.44-1.941,23.226,23.226,0,0,1,4.367-.441,4.378,4.378,0,0,1,2.161.441,1.451,1.451,0,0,1,.75,1.588c-.176,1.235-2.117,2.161-5.867,3a53.314,53.314,0,0,0-8.69,2.691c-2.073.926-3.264,2.779-3.661,5.6a6.1,6.1,0,0,0,1.764,5.734c1.544,1.412,3.794,2.073,6.837,2.073.485,0,1.191-.044,2.029-.132Q354.9,67,355.493,67l2.206-5.514a8.78,8.78,0,0,1-2.691.441,3.849,3.849,0,0,1-2.029-.441,1.417,1.417,0,0,1-.573-1.588,3.5,3.5,0,0,1,2.6-2.647c1.676-.662,3.441-1.279,5.382-1.853Z" transform="translate(-191.576 -22.803)"/>
    <path id="Path_66" data-name="Path 66" class="cls-1" d="M403.1,66.208a42.813,42.813,0,0,0,4.588.75,29.168,29.168,0,0,0,4.279.309,17.474,17.474,0,0,0,7.543-1.676,6.456,6.456,0,0,0,4.014-5.117q.529-4.235-3.705-7.543c-2.867-2.294-4.235-3.661-4.191-4.146a1.43,1.43,0,0,1,.794-1.059,9.194,9.194,0,0,1,3.044-.309,12.034,12.034,0,0,1,2.911.309,15.452,15.452,0,0,1,2.779.882l.132-6.925c-1.632-.309-3.132-.485-4.455-.618a24.768,24.768,0,0,0-4.058-.265c-3.529,0-6.176.662-7.9,1.985a7.261,7.261,0,0,0-2.955,4.852A6.642,6.642,0,0,0,408,53.416c1.764,1.764,3.705,3.661,5.823,5.734a1.49,1.49,0,0,1-1.235,1.279,8.224,8.224,0,0,1-2.382.265,11.123,11.123,0,0,1-3.308-.441,34.533,34.533,0,0,1-3.794-1.367Z" transform="translate(-225.288 -22.803)"/>
    <path id="Path_67" data-name="Path 67" class="cls-2" d="M25.055,51.434l-11.6-20.556-7.5,14.557L0,4.014l5.646,16.5L11.689,0,25.055,22.673,38.421,0l6.043,20.512,5.646-16.5-6,41.42L36.656,30.878Z"/>
  </g>
</svg>
