<?xml version="1.0" encoding="utf-8"?>
<!-- Generator: Adobe Illustrator 22.0.1, SVG Export Plug-In . SVG Version: 6.00 Build 0)  -->
<svg version="1.1" id="Layer_1" xmlns="http://www.w3.org/2000/svg" xmlns:xlink="http://www.w3.org/1999/xlink" x="0px" y="0px"
	 viewBox="0 0 1920 798.2" style="enable-background:new 0 0 1920 798.2;" xml:space="preserve">
<style type="text/css">
	.st0{fill:#EFEFEF;}
	.st1{fill:#C7C8CA;}
	.st2{fill:none;}
	.st3{fill:#ED1C24;}
</style>
<g id="Group_13" transform="translate(4210)">
	<path class="st0" d="M-3250,1.2c-411.6,0-770.4,81.4-960,202.1v329.9v62.9v202.1h1920V596.1v-62.9V203.3
		C-2479.5,82.6-2838.4,1.2-3250,1.2z"/>
	<g>
		<g>
			<g id="Mask_Group_1" transform="matrix(0.966, 0.259, -0.259, 0.966, 1937.949, 537.282)">
				<g id="Group_4" transform="matrix(0.966, -0.259, 0.259, 0.966, 292.303, 6922.98)">
					<path id="Path_15" class="st1" d="M-3823.5-6675l0.7-2.1l-2.2-0.4l-1.1-1.8l-2.6-2.5l-0.1-0.9l-0.4-0.5l-1.2-0.4l-1.3,0.1
						l-0.2,0.7l0.8,0.9l0.3,1.3l0.5,1.2l3.6,2.5l-0.9,0.3l-0.6,0.6l0.4,0.9l3.9,2.1l-0.1-1l0,0L-3823.5-6675z"/>
					<path id="Path_16" class="st1" d="M-3818.7-6520.2L-3818.7-6520.2l-4.2,1.8l-0.7,1.8l0.7,0.4l2.2,0.4l2.2-0.6l2.4-1.3l0.3-2.1
						l-0.7-0.4L-3818.7-6520.2z"/>
					<path id="Path_17" class="st1" d="M-3839.3-6696.6l5,1.7l1-0.6l-0.2-1.1l-0.7-1l-2.1-1.7l0.2-1.5l-1.5-2.1l-0.9-0.1l-0.6,0.3
						l-0.7-0.3l-1.1-1.3l-2-1.2l-0.7-1.8l-0.2-1.8l-1.7-1.7h-0.6l-0.2,1.6l-0.6,0.4l-0.8-0.4l0,0l-1-1.5l-0.7-0.5l-0.7,0.3v1
						l2.4,4.5l3.2,3.6h1.6L-3839.3-6696.6z"/>
					<path id="Path_18" class="st1" d="M-3746.6-6619.4"/>
					<path id="Path_19" class="st1" d="M-3798.4-6674.8l-0.8-2.1l-3.5-4.3l-0.8,0.2l-0.9,0.9l-1.3,0.6l0.4,1.8l4.9,4.8l1.5,2.3h0.8
						l0.1-1.8l0,0L-3798.4-6674.8z"/>
					<path id="Path_20" class="st1" d="M-3935.4-6764.5l14.2,13l-0.1-1l0,0l-2-5.3l-0.9-0.5l-5.9-6.4l-0.1-1.5l-1.3-2l-2.9-2.2
						l-1.8-0.8l-0.3,1.2l0.5,1.5l-0.1,2L-3935.4-6764.5z"/>
					<path id="Path_21" class="st1" d="M-3772.6-6509.2l-0.8-1l-1.4-0.3l-0.5,4.5l-0.9,3.7l-0.2,1.3l1.1-0.2l1.7-1.8l1.4,0.8
						l0.9-4.1l-0.5-2.7L-3772.6-6509.2z"/>
					<path id="Path_22" class="st1" d="M-4068.4-6875.2L-4068.4-6875.2l-0.5-0.4l-1-1.7l-2.1-0.9l-1.3-0.1l1.1,4.1l1.6,2.3l1-0.5
						l0.7-1.6l2.1-1l-0.7-0.2L-4068.4-6875.2z"/>
					<path id="Path_23" class="st1" d="M-3978.5-6971.4l-3.8-4.2l-4.6-3l-1.2-0.2l-0.9,1.2v2.7l1.8,2.3l8.9,5.3h1l-0.8-2.9l0,0
						L-3978.5-6971.4z"/>
					<path id="Path_24" class="st1" d="M-4030.8-6991.7l-7.3,0.6l0.8,1.4l3.9,2.8l0.7,0.9l3.1,1.6l1.4,0.1l0.8-1.3l-0.3-1.7
						L-4030.8-6991.7z"/>
					<path id="Path_25" class="st1" d="M-3958.2-6853.2l-10.1-9l-0.2,1.1l1,2.4l7,7.6l2.3,0.7h1.4l1.1,1.8l0.3-1l-1.3-2.3
						L-3958.2-6853.2z"/>
					<path id="Path_26" class="st1" d="M-4161.7-6974.3l-2.1-1.3l-0.6,0.1l-1.8-1.2l0,0l-1.1-0.1l-1,0.4l0.3,1l1.3,0.5l0.9,1.1
						l0.1,1.3l-0.6,0.8l-0.3,0.8l0.3,1.2l-0.2,1l0.2,1l0.8,0.1l0.7-0.7l0.4-1l0.1-1.5l0.4-0.7l0.6,0.4l2.3-0.2l0.3-0.6l-0.2-1.4
						L-4161.7-6974.3z"/>
					<path id="Path_27" class="st1" d="M-3936.4-6828.7l-1-0.6h-1.5l-1.2-0.4l-0.7-0.7l-2.6-0.3l-0.9,2.9l0.9,4.1l2.3,2.1l2.5,0.9
						h1.9l0.8-0.8l0.4-1.3l0.8-0.7l1.1-0.3l4,1.7l0.8,1.3l0.3,1.1l1.4-0.3l1.5-0.7l0.5-0.6l-0.6-0.8l-1.1-0.2l-1.3-0.9l-1.3-1.5
						l-2.5-1.7l-2,0.3l-1.4-1l0,0L-3936.4-6828.7z"/>
					<path id="Path_28" class="st1" d="M-3754.2-6619v0.9l-1.5,2.6l0.4,0.9l2.6,0.3l1-0.3h1l0.6-0.4l0.5-1l0.8-0.2l2.1,0.8l1-0.8
						l-0.9-3.2l-2.8-2.3l-2.1,0.1l-0.5,0.6l0.5,1.5l-2.1-0.2L-3754.2-6619z"/>
					<path id="Path_29" class="st1" d="M-3998.1-6840.9l-1.6-1l-0.8-1.3l-0.2-2.3l0.2-1.1l0.4-1l-0.5-1.3l-2.6-1.8l-2.6-0.7
						l-1.2,1.1l-0.6,1.8l1,1.8l2.2,0.9l1.6,3.4l0.2,1.6l0.4,2l0.7,0.5l0.7,0.1l2.2,1.4l1.6-0.1l0,0l-0.1-2.9L-3998.1-6840.9z"/>
					<path id="Path_30" class="st1" d="M-3650.5-6535.3l-0.9-0.2l-1,0.4h-1.6l-0.5-0.8l0,0l-2.2-0.1l-1.3,0.3l-1.7,1.1l-0.8,1
						l2.3,1.1l1.3,0.2l6.2,0.4h0.6l1.1-0.6l0.9-0.1l1.2-0.4l-0.1-1.3l-2.2-1H-3650.5z"/>
					<path id="Path_36" class="st1" d="M-3488.3-6486.5"/>
					<path id="Path_38" class="st1" d="M-3885.1-6701.1l-2.3-2.5l-2.1-2.8l-13.3-10.9l-0.9-2.4l-3.5-3.3l-2.3,1.4l0.9,3l2.6,3.2
						l2.3,2.3l4.7,3.4l3.6,4.8l3.3,2.3l10.3,4.6L-3885.1-6701.1z"/>
					<path id="Path_39" class="st1" d="M-3831-6667L-3831-6667l-1.5-1.8l-1.4-2.3l-2-1.8l-5.3-0.6l-0.7-0.3l-0.7-1.2l-1.3,1.7
						l2.8,1.3l7.5,5.7l1.6,2l1.5-0.7l10.3,3.1L-3831-6667z"/>
					<path id="Path_40" class="st1" d="M-3700.6-6591.5l-0.5,0.3l-0.1,1.4h-1.1l-1-0.8l-1.4-0.9l2.9,3.6l13.7,7.9l11,3.4l11.1,1.5
						l32.2-0.9l5.8-1.3l3.1-4.4l1.4,0.9l1.2-1.4l2.3-4.4l-1.3-2.3l-1.2-0.4l-1.5,0.2l-1.8-0.6l-3.3-3.7l-1.5-1.3l-1.1,1.2l-1.3,0.2
						l-1.6-0.5l0,0l-1.8-0.9h2.4v-1.6l-21.2-5.7l-33.7-1.3l-7-2.8l-1.1-0.2l-3.6,0.2l2.4,5.5l2.4,4.2l-2.1,0.5l-1.1,1.1l-0.1,1.5
						l0.9,1.7l-0.9,0.2L-3700.6-6591.5z"/>
					<path id="Path_41" class="st1" d="M-3707.3-6594.8l-4.3-3.5l-3.1-4.1l-3.3-2.8l-4.7,0.6l-0.7-3.9l0,0l-3.7-2l-9.9-0.8l-2.6,0.5
						l-0.9,1.4l0.5,1.6l1.7,1.4l-1.1,0.5l0.1,1.1l4.3,0.6l8.6,3.7l11.6,7.3l4.7,1.2L-3707.3-6594.8z"/>
					<path id="Path_42" class="st1" d="M-3677.5-6566.7"/>
					<path id="Path_43" class="st1" d="M-3731.9-6531.2l-0.7,0.7l-0.8,1l-2.3-1.5l-2.2-0.1l-3.9,1.6l0.3-0.5l0,0l0.8-1.2l-5.1-2
						l-6.9-0.2l-6.6,1.3l-4,2.6l-2.1,0.4l-1.5,1.2l2.5,3.3h1.1l1.6-0.5l1.4,2.9l-0.4,3.7l-3.8,2l4.2,1.4l6-0.4l15.4-4.7l2.1-1.6
						l2.1-2.7l2.1-1.5l1.1-1.1l0.4-1.4l-0.2-2.2L-3731.9-6531.2z"/>
					<path id="Path_44" class="st1" d="M-3735.4-6630.5l-1.8-0.4l-1.2,0.5l-0.1,1.3l1.2,0.8l2.1,0.8l2.8,0.4l2.2-0.5l1.4-0.8
						l2.6-0.2l8.9,1.5l6.5-0.7l0.8-1.4l-7.2-2.7l0,0l-4.1-1.4l-7.9-1.2l-2.9,1l0.7,2.1l-1.5,1.1L-3735.4-6630.5z"/>
					<path id="Path_45" class="st1" d="M-3654.9-6542.6h86.8l-6.6-3.1l-7.9-0.8l-15.8,0.7l-10.4-2.8l-10.8-0.5l-3.2-1l-2.5-2.4
						l-2.8,1.5l-16.9,0.1l-4.1-0.6l-3.8-1.5l-3.4-2.6l1.3-0.5l-0.1-1.1l-2.2-1.4l-1.4-2l-1-1.8l-1.2-1.2l-2.4-0.9l-5.1-0.9h-2.2
						l-1.2,0.4l-1.6,1.3l-0.7,0.1l-3.5-3.1l-4.8,0.2l-2.6-0.2l1.5,1.7l4.6,2.8l4.7,5l-4.9,0.2l-4.8-3.9l-5.2-3.3l-6.3,2v-1.4l-2,2.3
						l-0.6,0.9l-1-1.7l-4.3,2.7l-2,0.3l-2.2-1.2l-2,0.1l-0.7,0.5l-0.7,1l7.7,3.3l2,0.4l3.1,2.2l5.2,1l14.7,5.7l19.1,4.1
						L-3654.9-6542.6z"/>
					<path id="Path_46" class="st1" d="M-3973.6-6788.5h-1.2l-1.3,0.9l-1.2-0.6l0,0l-1.4-1.7l-0.8-2.6l-0.4,3.8l2.7,2.8l3.6,1.1
						l2.3-0.9l-0.9-1.8L-3973.6-6788.5z"/>
					<path id="Path_47" class="st1" d="M-4015.9-6834.2l-3.2-1.5l0.6,2l7.3,6.6l2.9,1.6l0.7-0.8l0,0l-3.1-4.2L-4015.9-6834.2z"/>
					<path id="Path_48" class="st1" d="M-3990.6-6822.4l-1.1,0.3v1.7l-0.6,0.8h-1.7l-0.2,2l1.7,2.6l2,0.4l1.1-1.2l0,0l1.6-0.4
						l2.5-0.1l0.3-1.3l-3.2-3.1L-3990.6-6822.4z"/>
					<path id="Path_49" class="st1" d="M-3872-6727.3l-1.2-3l-1.5-2.6l-1.3-1.7l-1.3-0.9l-2.4-1l-1-1.1l-0.4-1.3l-0.5-4.1l-0.4-1.3
						l-0.9-0.4l-5-1l-9.2-7.1l-2.8-1.3h-3.4l1.6,2.6l4.6,5.3l1,2.9l1.1,1.8l2.8,2.5l3.2,2.2l2.3,1l-0.4,0.9l-0.8,0.5l1.5,2.4
						l2.4,1.3l4.4,1.4l0.7,0.7l0.3,1.1l0.6,1l1.3,0.4l1.5,0.1l1.3,0.3l1.2,0.4l1.3,0.8L-3872-6727.3z"/>
					<path id="Path_50" class="st1" d="M-3915-6726.4l4.3-1.4l-0.6-2.8l-12.5-8.9l-4.7-7l-0.6-1.2l-2.5-0.3l-2-1.1l-8.1-8.8
						l-1.6-2.5l-0.7-2.9l-0.2-3.4l-0.7-2.4l-1.4-1.3l-2.4-0.4l1.1-3.3l-2.3,1.2l-1.5-0.7l0,0l-1.5-1.3l-2.4-0.8l-1.4-0.8l-1-2
						l-0.7-2.2l-0.9-1.6l-9.8-7.8l-3.4-3.9l-1.4-0.2l-0.9,0.2l2.4,3.5l0.8,2.2l0.4,2.8l14.7,15.7l4.8,2.3l3.5,3.4l6.9,14.9l4.2,5
						l6.9,10.7l2.6,3.1l2.7,2.3l6.2,3.8l0.5,0.7l1.6,1.7l1.7,1.1l0.7-1.2l-0.3-2.1l-1-0.3l-1.3,0.1l-1.3-0.9l-1-1l-4.4-3.1l-0.7-1.2
						l-0.4-1.1l-0.8-0.8l2.2-0.6L-3915-6726.4z"/>
					<path id="Path_51" class="st1" d="M-3983.9-6843.1l-0.2-0.9l0.5-1.5l0.9-2l-0.3-2.4l-1.5-2.2l-2.1-1.1l-2,0.3l-1.4,0.6l0.8,7.5
						l-1.7,3l-0.3,2l3.1,2.8l2,1.4l2.8,0.9l1.7-1.7l0,0l-0.9-4.3L-3983.9-6843.1z"/>
					<path id="Path_52" class="st1" d="M-3906.8-6758.3l2.2,2.4l-1.2-7l-3.7-4.7l0,0l-28.4-23.1l1.5,3.8l0.7,1.3l-0.8,0.7l-0.4,0.9
						l3.2,2.5l6.1,7.6l4.6,3.8l3.7,4.3l3.4,2.7l1.6-2.7l1.1,2.2l0.2,1.1h1.1l1.7-1.2l1.6,2.1L-3906.8-6758.3z"/>
					<path id="Path_53" class="st1" d="M-3990.3-6911.5l18.1,22.5l2,1.6l0.1,2.1l5,7.4l2.2,3.9l-1,0.5l-1.7,1l-0.9,0.3v1.5l9,5.5
						l1.6,0.3l10.7,8.9l3.1,6.5l1.8,2.2l1.5,0.1l2.7-1.5l1.6-0.3l1.5,0.5l4.4,3l-0.8,1.8l-0.9,1.1l-1.2,0.3l-1.8-0.1l1.3,3.1l0.9,1
						l1.4,0.8v1.8h-2.5v1.5l2.6,3.7l3.1,3.1l3.5,2.2l4,0.9v-1.4l-7.2-5.1v-1.5l4.1,0.4l7.7,3.4l3.7,1l-1.5-1.1l-0.5-0.8l-0.3-1.3
						h3.6l-2-2.9l-2.7-2.8l-3.1-2l-3.1-0.7v-1.6l3.9,1.8l4.2,3.3l4,2.5l3.4-0.9l-2.3-2.7l-4.9-4.4l-2.5-2.9l-3.9-2.5l-16.1-17.2
						l-7.3-3.6l1.6,5.1l2.5,4.2l2.8,3.3l2.7,2.3l-8.4-5.9l-14.2-20.5l-9.6-5.3v-1.6h3l2.4,1.2l1.8,1.4l3.5,1.3l7.2,4.2l-0.4,0.9
						l-0.8,2.5l3.7,0.4l4.8,4.1l3.4,0.5l-2.5-4l-1.6-3.8l-1.8-2.8l-6.5-2.1l-2.6-2.6l-4-6.6l-4.8-5l-6-3.9l-4.1,0.2l0.6,7.2l-6.7-5
						l0,0l-11.4-16.9l-6.7-7.8l-0.5-0.4h-0.8l1.7,5.5L-3990.3-6911.5z"/>
					<path id="Path_54" class="st1" d="M-4080.1-6912.3l-1.5,4.7l-0.3,1.7l-0.2,2.2l1.2,1.5l2.3,0.7l2,1.3l1.3-0.3l0,0l-1-3.1
						l-1.5-2.9v-1.3l0.3-1.3l-0.3-1.2l0.1-0.9l0.6-0.6l2.4-0.5l1-1.5v-2.4l-2.6-0.5L-4080.1-6912.3z"/>
					<path id="Path_55" class="st1" d="M-4045.1-6888.9l-6.2-8.5l-1-2.3l-0.7-6.7l-0.8-3.9l-0.8-2.2l1.2-5.7l-2.9-3.2l-4.4-2.1
						l-3.4-2.4l0.2,4.1l1.3,7.6l0.8,3.3l4.6,7.8l1.1,4.8l-3.1,3.9l0.8,1.8h-1.1v1.5l2,1.4l2.2,0.5l1.7-0.9l1.2-2.6l3.2,1.4l2.7,2.3
						l4.9,6.4l-1.2-0.6l-3.6-1.1v1.7l2.4,1.6l5.8,7.6l4.6,4.4l3.9-0.4l-1.3-4.8L-4045.1-6888.9z"/>
					<path id="Path_56" class="st1" d="M-4033-6907.5l-1.1-0.8l-0.1-1.8l1-2.3l-2.3-3.9l-2.7-3.4l-2.4-3.8l-1-5.3l0.2-3.1l1.1-3
						l-0.2-2.7l-0.6-1.8l-2.1-3.6l-0.9-2.7l2.6-1.5l-0.3-4l-2.3-7.3l-0.6-8l0.3-3.5l1.5-4.3l-1.2-1.6l1.8-3.4l1.4-4.3l0,0l0.4-4.3
						l-1.2-3.1l-2.2-1l-4-0.5l-2.3-2l-0.9-1.3l-4.3-8.7l-3.1-8.9l-1.1-4.4l-0.4-6l0.6-9.9l-1.4-2.9l-4.2-1.5l-3.2,0.8l-2.4,2.5
						l-2,3.3l-1.8,5.1l0.1,3.6l1.5,3.1l9.2,11.1l1,2.1l5.2,14.9l2.6,4.2l3.4,3.3l-1.2,1.6l-2.4-2.7l-0.2,2.5l0.7,3.8l0.7,1.4
						l-0.7,3.5l-1,1.4l-1.7,0.2l-3.1-0.1l-1.6-1.1l-3.1-4.7l-1.2-1l-4.1-1.6l-1.5,0.7l1.5,4.4l-0.9,1.5l-0.4,1.8l3.5,3.6l2.8,14.7
						l2.8,3.3l1.8,0.1l0.8,1l0.3,2.3l0.2,7.9l0.6,3.2l1.1,1.7l1.5-0.9l1.6,1.3l0.8,0.2l-0.5,10.8l5.8,12.4l7.9,8.8h5l2,0.3l1.2-0.6
						l1.1-1.3l1.2-1.7l-1.1-3.4L-4033-6907.5z"/>
					<path id="Path_57" class="st1" d="M-3991.5-6935.8l-2-2l-0.4-1.1v-2l5.5,4.4l8.4,9.7l4.9,4.3l1.6-3.5l-1.3-4.8l-5-8.3l-1.8-2
						l-4.2-2.5l-6.9-6.7l-1.2-0.9v-1.5l2.7-2.2l-0.5-2.6l-2.5-1.8l-3.3-0.3l0.7,2.6l0.4,1l-3.4-1.2l-3.7-0.5l0.7,2.6l0.4,0.8
						l2.4,1.6l1.4,2.1l2.2,4.8h-1.1l-0.7-1.1l-2.9-2.5l0.5,2.7l0.6,0.9v1.4l-2-0.9l-2.1-0.5l-2.2-0.2l-2.2,0.2l7.2,8.1l1.8-0.6
						l2.6,0.1l2.8,0.7L-3991.5-6935.8z"/>
					<path id="Path_58" class="st1" d="M-4017.7-7003v-1.7l3-1.6l1,2.1l-0.5,8.8l0.2,3.9l0.7,1.8l5,2l8.4,5.8l3,0.8l3.2-0.4l2.6-0.9
						l0.7-1.5l-2.4-2.2v-1.5l2.4-1.8l2,1.5l2.2,0.5l2.2-0.5l2.1-1.5h1l-2.6-6.8l-10.4-9.7l0.1-7l-7.8-0.1l-3.1-1l-2.2-2.4l-1.1-5.2
						l2.1-8.6l-0.9-4.5l-3.8,1.2l-5.4-0.6l-2.6-1.7l4.5-2.3l-2.3-5.5l-2.6-4.5l-0.7-0.8l-0.8-1.1l-0.5-1.4l-0.3-1.7h2.4l-5.7-3.1
						l-2.5,0.3l-2.6,2.8l1.6,0.4l0.9,1.3l0.1,2.2l-0.3,2.8l-1.8,2.1l-0.2,2l0.6,1.7l0.4,2l-0.4,2.2l-0.9,2l-2.3,3.3l1.5,3.5
						l-2.8,1.4l-6.6,0.1l-1.5,1.1l-0.3,2.3l0.2,2.4l-0.7,1h-2l-1.7,0.3l-1.4,0.9l-1.3,2.2l2.4,4.1l3.7,4.4l4.3,3.6l4.4,1.4l13.9,2.2
						l4.6-0.3L-4017.7-7003z"/>
					<path id="Path_60" class="st1" d="M-3252.3-7105.7"/>
				</g>
			</g>
		</g>
		<g>
			<path class="st2" d="M-3389.5,2.9c-3.3,0.1-6.6,0.3-9.9,0.4l8.2,0.6L-3389.5,2.9z"/>
			<polygon class="st2" points="-3111.7,120.4 -3111.5,121.7 -3111.5,121.7 -3111.7,120.3 -3112.3,118.3 -3113.1,117.5 
				-3112.3,118.4 			"/>
			<polygon class="st2" points="-3262.6,114.7 -3259.7,112.9 -3257.9,109.6 -3259.8,112.9 			"/>
			<polygon class="st1" points="-3112.5,124.7 -3111.7,122.9 -3111.5,121.8 -3111.5,121.7 -3111.7,122.8 			"/>
		</g>
	</g>
	<g>
		<path class="st1" d="M-3064,797.7l4.3-3.2l0.4-0.3l0.1-0.1l-0.5-6.6l-0.1-0.1l-5.3-12.5l-7.1-8.4l-23.7-15.7l-1.5-1l-2.6-3.2
			l-2.1-4.5l-1.4-4.9l-1.1-2.5l-1.8-1.7l-3.5-2.3l-7.1-6.6l-6.8-10.3l-3.8-11.9l3.2-20.1l-2.7-6.2l-5.4-3.6l-16.7-2.7l-10.2-5.6
			l-9.3-8.4l-8.4-10l-27.4-28.1l-19.3-15.4l-2.5-4l-1.5-5.1l-0.6-4l-1.3-3.5l-7.1-6.7l-5.7-7.9l-8.5-8.7l-4.9-7.4l-1.8-2.8l-2.8-3.2
			l-3-2.4l-7.6-2.8l-1.4-2.9l-0.8-3.5l-2.3-3.7l-1.7-0.7l-4.5,0.3l-1.8-0.2l-1.6-0.9l-2-1.5l-3.4-3.4l-2.6-4.2l-3.8-9.5l-2.6-4.4
			l-7.5-8.2l-2.9-4.1l-3.2-10.4l-1.6-7.6l-0.2-3.7l0.5-2.7l1.7-3.9l0.6-2.1l0.5-4l-0.5-2.5l-2-1.8l-3.6-2.4l-3.1-0.8l-2-0.1
			l-0.7,0.8l0.1-2l1.1-0.9l1.5-1l1-1.7v-3.7l-1.2-4.6l-4.2-12l-0.9-4.7l-1.1-4.3l-2.1-2.6l-3.7-0.7l-6.3,2.9l-3.6-0.4l-3.6-3.9
			l1.3-3.9l2.9-3.7l0.8-3.2l1.6-1l-0.6-3.3l-0.8-3l-1.3-2.4l-2.2-1l-4.2-0.6l-2.3-0.7l-1.7-1.1l-2.3-3.4l-1.3-6.1l-1.8-2.7l-1.3-0.1
			l-1.4,0.8l-1.4,0.3l-1.3-1.3l-0.6-2.2l-0.4-2.5l-0.7-2.4l-1.1-1.3l-2.2-0.1l-1.2,1.4l-0.9,2.2l-1.3,1.5l-1.4,0.5l-3.2,0.2
			l-1.6,0.6l-2.6,0.4l-1.4-1.6l-1.1-2.5l-1.3-2.3l-4.1-2.9l-0.9-1.2l-4.4-7.3l-2-4.2l-0.2-4.1l2.6-3.4l3.5-1.1l3.1-1.4l0.8-4.3
			l-1.6-4.6l-2.8-4.4l-2.4-4.9l-0.6-6.2l0.5-1.7l0.8-2.6l4.3-7.5l0.7-4.3l-2.1-7.5v-4.5l4.1-10.7l0.7-3.8l-0.6-14.6l0.2-2l2-5.3
			l1.7-1.6l3.9-3.6l9.3-1.5l16.6,0.5l4-0.8l1.8,0.1l2.1,1l1.5,2.3l-0.1,2.2l-0.6,1.7l-0.1,1.1l1.5,1.1l3.8,0.8l2.2,1.7l2.7,4.4
			l3.7,9.6l3,4l15.9,15.9l4.8,3.1l6.7,2.9l6.4,1.4l4.2-1.1l2.9-10.5l3.5-6.6l0.8-2.1l0.4-2.9l-0.4-1.5v-1.4l1.2-2.3l1.6-1.1l4.5-1.4
			l2-1.3l2.4-3.8l5.7-12.6l8.2-5.7l10.1,0.4l34.5,10.3l4.4-0.5l2.2-2l0.3-1.8l-0.1-2.1l0.9-3l1.7-1.7l2-0.8l1.7-1.2l0.9-2.7l1.4-0.9
			l1.8-2.1l1.3-2.1l0.5-1.1l4.8-4l1.4,1.4l1.3,5.1l0.3,2l-0.1,2.2l0.9,1.3l3.6-0.4l-0.4-1.6l-0.7-1.7l2.6,0.9l2.1,2.7l1.8,1.2
			l1.6-3.1l0.7,1.8l0.2,1.4l-0.1,1.5l-0.8,2.1l1.1-0.9l2.8-1.7l1-0.8l3.4,7.4l7.4,5.5l4.5,2.2l10.9,5l1.8-1.1l8.2-0.5l0.7-1.1
			l3.4-7.3l6.8,4.4l3.2,1.3l5.8,3.8l1.5,1.3l2.5,1.3l3.2-0.3l5.8-1.8l0.8-2.4l0.8-0.9l1.3,0.8l1,1.6l0.1,1.4l-0.5,1.3l-1.2,1.5
			l2.2,0.7l2.2-0.3l4.1-2.3l-1.6,5.1l-0.8,1.6l1.2-0.5l8.7-1.1l3.8,0.4l2-0.3l3.6-2.3l6.4-6.8l3.7-2l5.8,0.3l5.2,3l4.6,4.6l9.8,12.5
			l3.2,3l3.5,1.3l1.6-0.2l5.1-2.2l4.8-0.9l1.4-0.7l2.9-2.8l10.6-12.7l2.6-1.3h2.7l2.8,1.4l9.7,8.7l3.8,1.8l3.4,0.6l3.8,0.1l3.7-0.8
			l3-1.8l1.2-2.6l0.1-3.1l0.4-3.1l2-2.5l4.2-0.8l4.2,1.6l7.9,5.7l2.6,1.1l12.2,1.1l3.3,1.4l3.1,2.6l6.4,6.9l4.2,2.8l4.6,1.7l4.2,0.1
			l-0.4-3.4l-0.8-3.1l0.1-1.6v-0.5l2.6-1l1.3,0.1l2.9,0.6l1.3,0.1l1.2-0.5l2.4-1.4l1.1-0.2l1.3,0.6l0.8,1.1l1.1,3.2l1,2l1.2,1.6
			l1.3,0.7l1.6-0.9l0.5-1.2l0.9-2.9l0.9-0.9l1.1-0.2l1,0.7l0.8,1.1l6.5,13.3l2.2,2.5l2.1,0.9l4.8,0.5l1.1,0.4l0.7,0.7l1,2.5l0.2,2.6
			l1.2,2l0.3,0.8l-0.5,2.5l-3.8,2.9l-1.2,2.4l1.8,7l6,6.5l7.1,4.6l5.3,1.8l20-0.5l2-0.6l-3.8-7.1l-0.5-4.9l4.7-2.7l2.4,0.7l3.5,3.9
			l2.6,0.3l2.1-1.3l1.5-2.1l2.8-4.6l1.6-1l2-0.8l1.2-1.8l-0.6-3.7l-1.6-1.7l-3.5,1.3l-2-1.7l-0.3-2.5l0.5-3l0.8-3l0.4-2.4l-0.2-2.6
			l-1.4-7.2l-0.6-6l-0.5-2.4l-1.3-3.1l-1.3-1.5l-1.7-1.7l-1.3-2l-0.2-2.2l2.6-2.4l9.8,1l3.8-0.8l0.6-4l-2.3-4.6l-1.1-3.6l3.8-0.9
			l2.1,1.1l3.3,4.7l1.8,1.8l3.3,1.3l3.8,0.2l7.2-0.9l0.9-0.7l1.1-2.2l1.2-0.5l0.8,0.4l1.4,2.2l0.8,0.6l15-0.7l2.6-2.6l0.4-5.8
			l-3-3.6l-3.3-1.5l-2.7-4.6l-34.8-9l-6.5-3.3l-4.5-5.3l-0.5-2.3l-0.1-2.9l-0.6-2.4l-1.6-0.9h-7.2l-3.5-0.8l-3-2.2l-2.6-3.3
			l-2.3-3.9l9.1-4.2l1.5-2.6l-1-2.9l-3.3-3.6l-1.6-1.6l-1.1-4.6l2.3-6.2l11.7,1.7l5-4.9l-1.8-3.6l-2.3-1.2l-2.6-0.5l-2.9-1.4
			l-1.7-1.4l-0.7-1.1l-0.6-1.3l-1-2l-1.6-1.1l-1.5,0.4l-1.4,1.1l-3.1,1.5l-1.7,2.2l-2.2,1.8h-3.3l-1.6-1.6l-3.5-5.5l-1.4-1.2
			l0.6-2.2l0.2-4.6l0.7-4.7l2.1-2.1l2-1.4l4.7-6.6l1-2.2l-1-3.6l-2.6-2.3l-3-1.6l-2.4-2l-1.4-3.2l-0.7-7.5l-0.8-3.8l-5-6.3l-1.2-2.2
			l-2.7-2.7l-0.6-1.5l0.3-1.1l0.6-1l0.4-1.4l0.4-6.8l5.5-0.5l2.2-0.5l1.3-1.6l-0.5-2l-1.8-2l-3.6-2.9l1.5-1.8l1.4-1.3l3-2l-1-3.8
			l-2.6,0.1l-1.7,2.1l-1.8,1l-3.5,1l-3,2.1l-1.8,0.1l-2.3-2.1l-1.7,2.7l-0.7,2.3l-0.8,1.7l-1.7,1l-2.2-0.3l-6.9-3.6l-8.5-3l-3.3,0.7
			l-3.9,3.9l-0.7,1.2l-0.5,3l-0.4,1.5l-0.3,0.1l-2.6,2.9l-3.8,7.5l-2.1,2.6l-7.5,6.4l-4.5,1.7l-3.9-1.8l-2.8,1.8l-6.1,7.5l-3.3,2.7
			l-1.3,0.3l-1.1,0.1l-1.2-0.1l-1.1-0.3l-2.9-3.8h-2.8l-2.9,1.5l-3,1.2l-3-1.1l-3-3.3h-4l-5.2-4.1l-3.3-1h-14.3l-1.5,0.5l-3,2.2
			l-1.8,0.7h-2.1l-18.2-5h-14.9l-1.6,0.9l-0.8,2l-0.9,1.7l-2.2,0.4v-1l-3.4-5.9l-5-3.7l-21.2-6.6l-3.9-0.2l-1.4-0.9l-0.6-3l-0.2-2.9
			l-0.8-3.7l-0.2-2.1l-1.3-2.4l-8.2-8.7l-6.4-2.9l-7.4-1.5l-14.8-0.6l-1.4,0.9l-1.1,1.5l-0.9,0.7l-1.1-4l-1.8-0.8l-4.1,1.6l-3.5,0.2
			l-0.5-0.7l0.2-2.3l-1-4.2l-1.8,3.1l-1.8-0.4l-1.6-1.5l-0.3-0.3l-2.6-0.8v-1.7l1.1-0.3l2.2-0.9l1.3-0.3l-1.5-2.2l-2.9-0.4l-2.7-1
			l-1.2-4.2l-0.4-2.5l-2.2-8l-0.9-2.4l-7-9.1l-2-1.1l-14.1-0.5l-2.7-1.2l-8.3-6.4l-2.1-2.2l-0.8-2.7l-1.4-2l-9.2-7.5l-1.5-2.2
			c-15.4-0.4-30.9-0.7-46.5-0.8c-11-0.1-22-0.2-33-0.2c-33.5,0-66.6,0.5-99.3,1.6c-10.1,0.3-20.2,0.7-30.3,1.1l-1.6,1.1l-8.2-0.6
			c-3,0.1-6,0.3-9,0.4l-1.9,1l-3,4l-3.2,6.2l-2.5,7.1v6.4l2.4,5.7l4.8,5.1l2.2,1.2l4.8,2.1l2.2,1.5l2.4,3.7l-0.7,2.7l-2.1,3
			l-1.3,5.1l0.2,5.1l0.3,7.7l-0.2,4.1l-0.9,3.2l-1.2,2.9l-0.7,3l0.7,3.2l2.1,5l0.1,3.6l-1.7,2.5l-3.5,1.8l-3.4,1l-6.8,0.2l-11-1.8
			l-1.7,0.8l-3.2,2.7l-1.7,0.6l-2-0.3l-2-0.6l-2-0.3l-2,0.9l-0.8,2.4l0.7,2.6l0.2,2.4l-2.1,1.7l-21.8,7.2l-7,4l-1.4,1.6l-1,3l0.3,1
			l1.2,0.6l1.7,1.6l1.6,3.3l0.9,1.2l1.5,1.1l2.3,0.9l0.7-0.5l0.3-1l0.7-0.7l2.2-0.5l0.6-0.3l0.5,0.4l2.9,3.3l0.3,0.3l2.8,4.7l1,2.3
			l-3.6-0.1l-2.5,0.9l-2.2,1.1l-5,1.6l-1,1.8l-0.7,2l-1.1,1l-2.2,1.1l0.2,2.1l1.2,2.7l1,3l1,6.5l1.3,5.3l2.6,4.2l8.7,6l-1.7,1.4
			l-3.1,4.3l-1.4,1.4l-2,0.5l-5.7-0.1l-9.7,3.6l-7.3,2.7l-7.8-1l-14.4-12.3l-8.4-0.3l-1.7-1.5l-2-0.9l-4.1-0.5l-3-2.9l-4-2.6
			l-3.1,0.1l-0.7,5.3l-3.3,5.8l-7.4,2.7l-7.3-1.5l-2.8-7l-16.1-7.1l-3.4-3l-0.1-1.2l0.6-4.4l-0.3-2l-1-1.3l-1.1-0.6l-1.2-0.5l-6-4.8
			l-2.3-2.4l-1.5-3.1l-0.2-3.4l0.2-4.5l-0.3-3.8l-2-1.1l-3,1.2l-1.3,1.5l-2.2,5l-1.8,2.7l-4.3,4.9l-1.6,2.4l-1.1,3.2l-0.8,6.7
			l-0.9,3.5l-2.3,4.1l-6.9,5l-3.2,3.1l-6.7,3.8l-7.9,0.7l-8.1-1.5l-6.9-3.1l-3.8-0.9l-4.4,1.3l-8.3,3.8l-4.4,0.9l-0.4-0.1l-4.3-0.2
			l-4.5-1.5l-4.3-3.2l-2.4-2.4l-2.5-1.3l-7.3-1.5l-1.2,0.8l-0.6,1.7v2.7l3.7,4.4l-2.3,3l-8.1,3.5l-2.5,2.6l-1.5,2.4l-1.8,1.3
			l-9.2-1.3l-2.8-0.8l-2.4-2.4l-8.1-5.2l-22.6,1l-6.9-7.4l-3.7-0.5l-7.8-3.8l-1.7-1.3h-1.1l-0.9,3.3l0.5,3.6l2.9,6.6l-0.5,1.8
			l-0.4,0.6l0.9,1.1l-1.3,1.6l5.1,14.8l2.1,2.3v1.5l-2.5,1l0.1,2.7l1.6,2.9l2,2l1.6,0.3l4.6,0.2l2.1,1l-2.7,2.3l-1.5,0.8l-1.7,0.3
			l0.6,1.8l1,1.4l1.3,1l1.7,0.9v1.5h-1.8l-1.3,0.7l-0.9,1.2l-0.6,1.5l2.3,1.3l1.1,2.2l0.1,2.5l-1.1,2.5l0.9,2.5v2l-0.7,1.5l-1.3,0.9
			v1.5l1.4,1.1l0.6,1.1l-0.1,1.2l-0.8,1.6l1.7,1l0.2,1.6l-0.4,2.2l-0.3,2.6l0.7,2.1l2.1,0.1l4.3-1.2l8.1-0.4l4,0.6l3.4,1.6l-15.2,1
			l-4.5,3l4.2,6.1l-0.7,1l-0.9,2.5l-0.7,1.5l3.6,0.6l2.9,2.3l2.2,2.5l1.4,1.2l8.9,12.6l7.2,7.6l3.9,9.6l2,2.3l-0.8,1.2l-0.8,1.6
			l-0.7,0.7v1.4l1.8,2.4l1.7,0.5l4.7-1.1l-1.5,3.6l-2.4,1.3l-2.6-0.7l-1.8-2.6l-1.2,1.5l2.1,2.6l2.9,2l2.7,0.9l2-0.5l1.1,1.8
			l-1.1,1.7l1.8-0.2l0.5,0.2l-0.4,0.7l-0.4,1.7l-0.4,0.8l2,0.2l5.1,2.2l1.2,0.9l0.5,3.7l-0.1,4l0.7,2.3l2.6-1.4l-0.8-1l-1.5-3.9
			l0.8-2.6l-0.8-2.1l-1.8-1.4l-1.8-0.8l1.2-1.7l1.6,1l1.7-0.4l1.5,0.4l1,3.9l0.8-0.5l0.4-1.2l2.6,1.6l3,0.4l6.3-0.3l-1-1.7l-0.7-1.1
			l-1.1-0.5l-1.8,0.1l0.6-2.1l-0.6-3l1.5-3.1l0.7-1l1.3-0.9v-1.7h-1.2v-1.5h1.2l-1.3-2.7l-0.8-1.1l-1.4-1h2.8l3.8-1l1.7,1l0.4-1.8
			h0.8v-1.7l-0.8-1.2l-0.1-0.7l0.7-0.1l1.4,0.4l0.7-2.4l0.2-2.3l-0.2-2.1l-0.7-1.6h0.9l0.7,1.2l1.1-1.3l2.5-4.8l1.8-1.8l-0.7-2.4
			l-1.2-0.5l-1.6-0.2l-1.8-1.2l-0.7-2l0.7-4.4l-0.7-2.9l2.1,0.3l0.2,1.1l-0.3,1.7l0.6,1.8l3.6,3.4l1.4,4.5l-0.7,2.1l-1.4,2.2
			l-0.4,4.8h1.1l0.8-1.8l1.6-2.4l2.1-1.8l2.1-0.8l1.8,0.5l1.3,0.8l1.4,0.2l2-1.5l2.2-4.4l0.4-5.8l-1.1-5.2l-2.8-3.2v-1.5l0.7,0.5
			l1.8,1l-0.7-4.6v-1.6l0.7-2.1l1,1.7l2.8-2.8l2.3-3.5l0.3-3.7l-2.8-3.4l5.2,2l4-5.7l0.4-1.2l2.3-7.9l1.8-17.1l2.4-8.5l3.3-7.5
			l3.6-5.8l3.2-2.5l2.8,0.5l3.1,1.7l6.7,1.5l18.8,9.6l2.4,2.8l1.5,1.1h1.7l1.5-1l0.6-2l-0.5-0.4l-3.2-3.7l6.4,4.7l2,2.1l-2.4,2.3
			l1.3,3.4l2.9,3.1l2.5,1.3l8.8,11.8l18.8,14.6l10.6,5.8l2.7,2.1l1.7,2.9l0.7,4.3l4.3,10l5.7,13.4l1.3,5.5l-1.2,4.6l-1.6,3.7
			l-3.7,15.5l-0.4,4.3l0.4,13.5l0.6,5l1.1,4.2l0.2,3.7l-2,3l3,8.2l17.4,27.2l1,2.2l1.4,0.1l5.7,4.6l0.7,1.1l4.8,2.4l4.9,5.3
			l8.1,11.5l24,24.8l2.5,2.6l17.1,8.2l1.4,0.9l5.2,6.8l0.8,0.8l11.4,1.6l2.4,1.6l-0.5,2.7l-3.8,0.4l-13.8-2.2l-2.8-1l-12.4-7.2
			l-4.8-1.8l-4.9-4.4l-3.4-1.2l1.3,3l1.6,2.6l2,1.8l2.4,0.7l-1.4,2.2l-0.7,0.7l-1.5,0.5l2.4,8.4l-2.8-0.3l-1.8-1.6l-3.7-4.7
			l-8.5-5.8l0.5,1l0.9,3h-1.3l-0.7-0.8l-0.3,0.4l-1.3,0.4l3.9,3.1l-1.6,3.7l-3.8,1.7l-2-2.7l-1.3-4.6l-2.9-0.5l-3.2,1.8l-2.1,2.5
			l3.6,2.4l3.6,4.7l1.4,5.3l-2.8,4.3l9.1,9.5l2.8,2l-0.7,2.5l0.7,1.7l1.5,1.2l2,1.1l7.8,8.6l-0.1,0.7l7.3,9l3.5,1.3l3.2,3.3l4.5,6.9
			l9.5,11.5l1.2,2.1l0.7,1.6l0.9,1.5l2,1.5l1.2,0.6l1.5,0.4l2.7,0.4l2.6,1.1l2.2,2.6l3.5,5.4l0.3,0.3l4.7,4l11.3,5.7l4.6,4.1
			l0.5-0.4l0.7-0.1l1,0.5v1.7l-2.8-0.2l-2.7-0.7l-5.2-2.4l2.8,3.6l4.4,1.3l4.1,2l1.7,5.3l2.5,2.8l11.2,0.8l3.7,1.2l2,2l7,4l1.2,1.4
			l2.4,3.8l1,1.1l1.1,0.4l1.5,0.3h1.2l2.4,2.2l4.2,3.6l1.5-0.3l-0.1-4.5l2,2l0.3,2.1l-1.1,1.8l-2.4,0.9l1.8,0.9l1.5,1.6l0.2,1.6
			l-1.8,0.6l-1.2-0.4l-1.4-0.7l-1.7-0.2l-2.1,1.3h2.9l7.8,1.6v1.8l-6.4-0.1l-1.8,1.2l1.1,3.6l-1.3,1.8l1.3,1.5l-1.3,1.5l0.7,0.3
			l1.7,1.3l-1.6,1.2l-0.8,0.5v1.5h3.1l1.4,1.4l-0.3,1.6l-2.9,0.3l3.9,1.3l1.4,1.2l0.5,2.4l1-0.9l1-0.4l2.8-0.3l-0.8,1.8l0.8,2.4
			l-0.6,1.4l-1.6,1.1l-1.3-0.1l-0.9,0.5l-0.3,2.6l0.9,0.1l0.3-1.7l1.2,1.8h3.9l2.1,1.4V666h0.8h0.2l2.6,2.2l2,1l4.6,0.3l5.5,2.3
			l2.6,0.3l-0.4-2.6h10.7l-1.3-3.5l-2.5-1.7l-5.7-1.5v-1.5l21.2-0.5l7.2-2.3l3.2-0.5l1.1-0.5l3.3-2.1l2.1-0.6l16.9,0.4l4,0.9
			l2.9,1.8l-3.1,2.2l-3.7,1.7l-4,0.9h-3.5v1.6h13.1l6.6,1.6l0.9-0.2l1.5-1.1l1-0.3l0.9,0.5l0.5,1l0.3,1.7l15.8,11.5l11.8,2.6
			l10.2,4.5l22.3,3.3l1.3,1.1l1.2,1.5l1.8,1.7l4.8,3.3l16.3,21.3l0.7,0.5l2.3,0.6l0.7,0.4l0.3,0.9l0.5,3.1l0.4,1l1.7,2.9l1.2,1.3
			l1.1,0.6l1.7,0.3l1.7,0.8l1.3,1.3l1,3.1l1.3,1l2.9,1.5l6,4.9l25,12.9l8.5,11.4l0.9,1.3l5.9,5.3l3.7-3.3l0.3,1l1,2.3l-1.3,1.6
			l1.1,2l1.4,0.9l1.7,0.3h1.6l-3.4,2.7l2.3-0.7l3.1-1.8l2.9-1l2.5,0.9l-4,2.1l-1.4,2.2l0.6,2.9l2.5,4.4l1.7,2.5l2.6,2.8l0.2,0.3
			l0.1,0.2l3.3,2l2.6-1.1l2.9,1.6h9.4L-3064,797.7z M-3112.3,118.3l0.6,2l0.2,1.4l0,0l0,0.1l-0.2,1.1l-0.8,1.8l0.8-1.9l0.2-1.1
			l-0.2-1.3l-0.6-2l-0.8-0.9L-3112.3,118.3z M-3259.8,112.9l1.9-3.3L-3259.8,112.9l-2.8,1.8L-3259.8,112.9z"/>
		<polygon class="st2" points="-3111.7,120.4 -3111.5,121.7 -3111.5,121.7 -3111.7,120.3 -3112.3,118.3 -3113.1,117.5 
			-3112.3,118.4 		"/>
		<polygon class="st2" points="-3112.5,124.7 -3111.7,122.9 -3111.5,121.8 -3111.5,121.7 -3111.7,122.8 		"/>
		<polygon class="st2" points="-3257.9,109.6 -3259.8,112.9 -3262.6,114.7 -3259.7,112.9 		"/>
		<polygon class="st1" points="-3152.4,793.9 -3156,795.1 -3169.7,790.8 -3189.9,792.8 -3193.9,795 -3196.4,795.7 -3205.9,795.7 
			-3215.6,793.3 -3220.3,791.2 -3223.9,789 -3227.9,788.9 -3231.8,788.3 -3235.6,788.4 -3239.3,790.8 -3236.4,791.9 -3229.5,792.8 
			-3226.2,793.8 -3226.2,795.5 -3231,798.2 -3149.2,798.2 -3149.4,797.9 		"/>
		<polygon class="st1" points="-3101.6,796.2 -3107.8,792.2 -3133.9,781.5 -3148,779.5 -3162.9,781.1 -3165.9,780 -3171.6,775.3 
			-3175.4,774.7 -3174.3,776.1 -3173.5,777.5 -3172.5,778.7 -3170.9,779.4 -3170.9,781 -3172.6,783.5 -3171,785.9 -3167.8,788 
			-3164.9,789.2 -3159.1,790.5 -3140.6,790.5 -3138.5,790.9 -3137.2,791.5 -3134.4,793.6 -3128.5,795.4 -3124.6,798.2 
			-3099.4,798.2 		"/>
	</g>
</g>
<path id="Path_61" class="st3" d="M1036,23.9c-10,0-18.1,8.1-18.1,18.1c0,0.8,0.1,1.5,0.2,2.3c1.5,14.2,16.8,30.5,16.8,30.5
	c0.2,0.3,0.5,0.5,0.8,0.6l0,0l0.5,0.2l0.5-0.2l0,0c0.3-0.2,0.6-0.4,0.8-0.6c0,0,15-16.4,16.5-30.5c1.3-9.9-5.7-18.9-15.5-20.2
	C1037.7,24,1036.9,23.9,1036,23.9z M1036,53.7c-6.4,0-11.7-5.2-11.7-11.7s5.2-11.7,11.7-11.7c6.4,0,11.7,5.2,11.7,11.7l0,0
	C1047.7,48.5,1042.5,53.7,1036,53.7z"/>
<path id="Path_61-2" class="st3" d="M878.2,46.3c-10,0-18.1,8.1-18.1,18.1c0,0.8,0.1,1.5,0.2,2.3c1.5,14.2,16.8,30.5,16.8,30.5
	c0.2,0.3,0.5,0.5,0.8,0.6l0,0l0.5,0.2l0.5-0.2l0,0c0.3-0.2,0.6-0.4,0.8-0.6c0,0,15-16.4,16.5-30.5c1.3-9.9-5.7-18.9-15.5-20.2
	C879.8,46.3,879,46.3,878.2,46.3z M878.2,76.1c-6.4,0-11.7-5.2-11.7-11.7s5.2-11.7,11.7-11.7c6.4,0,11.7,5.2,11.7,11.7l0,0
	C889.8,70.9,884.6,76.1,878.2,76.1z"/>
<path id="Path_61-3" class="st3" d="M1326.3,113.5c-10,0-18.1,8.1-18.1,18.1c0,0.8,0.1,1.5,0.2,2.3c1.5,14.2,16.8,30.5,16.8,30.5
	c0.2,0.3,0.5,0.5,0.8,0.6l0,0l0.5,0.2l0.5-0.2l0,0c0.3-0.2,0.6-0.4,0.8-0.6c0,0,15-16.4,16.5-30.5c1.3-9.9-5.7-18.9-15.5-20.2
	C1328,113.6,1327.1,113.5,1326.3,113.5z M1326.3,143.3c-6.4,0-11.7-5.2-11.7-11.7c0-6.4,5.2-11.7,11.7-11.7s11.7,5.2,11.7,11.7l0,0
	C1338,138.1,1332.8,143.3,1326.3,143.3z"/>
<path id="Path_61-4" class="st3" d="M937.5,610.4c-10,0-18.1,8.1-18.1,18.1c0,0.8,0.1,1.5,0.2,2.3c1.5,14.2,16.8,30.5,16.8,30.5
	c0.2,0.3,0.5,0.5,0.8,0.6l0,0l0.5,0.2l0.5-0.2l0,0c0.3-0.2,0.6-0.4,0.8-0.6c0,0,15-16.4,16.5-30.5c1.3-9.9-5.7-18.9-15.5-20.2
	C939.2,610.4,938.4,610.4,937.5,610.4z M937.5,640.2c-6.4,0-11.7-5.2-11.7-11.7s5.2-11.7,11.7-11.7c6.4,0,11.7,5.2,11.7,11.7l0,0
	C949.2,634.9,944,640.2,937.5,640.2z"/>
<path id="Path_61-5" class="st3" d="M726.2,459.3c-10,0-18.1,8.1-18.1,18.1c0,0.8,0.1,1.5,0.2,2.3c1.5,14.2,16.8,30.5,16.8,30.5
	c0.2,0.3,0.5,0.5,0.8,0.6l0,0l0.5,0.2l0.5-0.2l0,0c0.3-0.2,0.6-0.4,0.8-0.6c0,0,15-16.4,16.5-30.5c1.3-9.9-5.7-18.9-15.5-20.2
	C727.8,459.3,727,459.3,726.2,459.3z M726.2,489.1c-6.4,0-11.7-5.2-11.7-11.7c0-6.4,5.2-11.7,11.7-11.7c6.4,0,11.7,5.2,11.7,11.7
	l0,0C737.8,483.8,732.6,489.1,726.2,489.1z"/>
<path id="Path_61-6" class="st3" d="M592.6,170.6c-10,0-18.1,8.1-18.1,18.1c0,0.8,0.1,1.5,0.2,2.3c1.5,14.2,16.8,30.5,16.8,30.5
	c0.2,0.3,0.5,0.5,0.8,0.6l0,0l0.5,0.2l0.5-0.2l0,0c0.3-0.2,0.6-0.4,0.8-0.6c0,0,15-16.4,16.5-30.5c1.3-9.9-5.7-18.9-15.5-20.2
	C594.2,170.6,593.4,170.6,592.6,170.6z M592.6,200.4c-6.4,0-11.7-5.2-11.7-11.7c0-6.4,5.2-11.7,11.7-11.7c6.4,0,11.7,5.2,11.7,11.7
	l0,0C604.2,195.1,599,200.4,592.6,200.4z"/>
</svg>
